<?xml version="1.0" encoding="utf-8"?>
<!-- Generator: Adobe Illustrator 16.0.0, SVG Export Plug-In . SVG Version: 6.00 Build 0)  -->
<!DOCTYPE svg PUBLIC "-//W3C//DTD SVG 1.1//EN" "http://www.w3.org/Graphics/SVG/1.1/DTD/svg11.dtd">
<svg version="1.1" id="Layer_1" xmlns="http://www.w3.org/2000/svg" xmlns:xlink="http://www.w3.org/1999/xlink" x="0px" y="0px"
	 width="150.391px" height="150px" viewBox="0 0 150.391 150" enable-background="new 0 0 150.391 150" xml:space="preserve">
<path fill="#dae3e8" d="M57.293,134.5c-0.16-0.125-0.293-0.217-0.408-0.264l-0.137,0.135l0.805,0.482
	C57.526,134.734,57.44,134.616,57.293,134.5z M118.897,133.393l0.029,0.145c0.092-0.025,0.153-0.045,0.19-0.063
	c-0.007-0.115,0.022-0.271,0.102-0.496c-0.016,0.012-0.03,0.023-0.045,0.037C119.037,133.155,118.944,133.279,118.897,133.393z
	 M80.28,100.657l0.132,0.733l0.124-0.638c-0.003-0.36,0.008-0.817,0.034-1.332c0.015-0.313-0.037-0.494-0.1-0.599L80.28,100.657z
	 M75.199,112.937c-0.007,0.054-0.014,0.11-0.021,0.168c-0.05,0.372-0.082,0.687-0.1,0.942c0.045-0.082,0.1-0.145,0.171-0.188
	c0.102-0.071,0.096-0.122,0.077-0.174L75.199,112.937z M71.871,101.521v-1.274c-0.146-0.246-0.312-0.584-0.497-1.008
	c-0.198-0.439-0.415-0.898-0.663-1.387c-0.236-0.471-0.519-0.875-0.846-1.205c-0.298-0.293-0.611-0.447-0.939-0.463
	c0.029,0.054,0.078,0.134,0.166,0.245c0.308,0.411,0.492,0.86,0.545,1.329c0.004,0.547-0.124,0.963-0.367,1.265
	c-0.207,0.252-0.423,0.494-0.646,0.718l0.435,2.012l-0.016,0.045c-0.027,0.074-0.07,0.207-0.162,0.283
	c0.004,0.014,0.01,0.027,0.016,0.047l0.009,0.959h-0.169c-0.009,0-0.19,0.029-0.576,0.996c-0.307,0.76-0.581,1.26-0.848,1.522
	c-0.229,0.427-0.6,0.798-1.063,1.054l-1.358,0.756h-0.044c-0.741,0-0.986,0.063-1.072,0.099c-0.066,0.028-0.158,0.044-0.271,0.044
	c-0.266,0-0.679-0.075-1.268-0.217c-0.252-0.055-0.563-0.166-0.946-0.344c-0.293-0.139-0.578-0.267-0.857-0.388
	c-0.076,0.257-0.288,0.533-0.807,0.701c-0.111,0.364-0.284,0.553-0.515,0.553c-0.032,0-0.068-0.006-0.104-0.015h-0.01
	c-0.064,0-0.197,0.047-0.392,0.429c-0.142,0.335-0.239,0.558-0.287,0.657c-0.053,0.1-0.15,0.314-0.295,0.654
	c-0.084,0.44-0.131,0.97-0.131,1.547c0,0.563,0.092,1.031,0.274,1.395c0.425,0.901,0.958,1.553,1.595,1.952
	c0.627,0.396,1.549,0.622,2.739,0.672l0.538-0.142c0.039-0.002,0.178,0,0.213,0c0.755,0,1.629-0.313,2.604-0.936
	c1.054-0.673,1.834-1.304,2.312-1.875c0.338-0.336,0.653-0.701,0.947-1.092c0.288-0.385,0.555-0.8,0.795-1.232
	c0.086-0.273,0.272-0.758,0.54-1.41c0.311-0.758,0.496-1.016,0.637-1.113l0.128-0.518c-0.004-0.068,0.021-0.149,0.074-0.205
	l0.05-0.049l0.054-0.01c0.005-0.015,0.021-0.044,0.04-0.089c0-0.506,0.11-1.101,0.338-1.819c0.213-0.697,0.321-1.334,0.319-1.897
	c0-0.173-0.033-0.335-0.095-0.483C71.912,102.097,71.871,101.845,71.871,101.521z M69.778,105.458
	c-0.197,0.69-0.421,1.361-0.666,1.994c-0.252,0.651-0.448,1.094-0.597,1.348c-0.342,0.826-1.021,1.713-2.014,2.607
	c-0.99,0.889-2.09,1.348-3.273,1.366l-0.084,0.084l-1.479-0.233l-0.697-0.34l-0.024-0.064c-0.088-0.27-0.201-0.469-0.324-0.596
	c-0.182-0.181-0.271-0.396-0.271-0.638c0-0.868,0.229-1.358,0.687-1.446c0.323-0.064,0.563-0.223,0.737-0.479l0.045-0.068
	l1.073-0.095v0.296l0.924-0.063c0.456,0,1.001-0.248,1.628-0.731c0.65-0.506,1.15-0.933,1.491-1.274
	c0.061-0.059,0.178-0.215,0.412-0.623c0.19-0.334,0.373-0.688,0.546-1.055c0.167-0.365,0.345-0.693,0.522-0.972
	c0.155-0.249,0.312-0.415,0.465-0.499l0.501-4.24l0.336,0.014l0.068,2.08c0.248,0.373,0.36,0.887,0.334,1.567
	C70.088,104.071,69.977,104.762,69.778,105.458z M145.827,130.333c-0.447-0.012-10.987-0.476-18.882-15.945
	c-5.7-13.545-16.712-40.709-26.432-64.684c-8.161-20.135-15.21-37.525-17.032-41.697C82.4,5.515,81.611,4.05,80.777,2.971
	c-0.073-0.097-0.145-0.183-0.248-0.308c-0.032-0.042-0.123-0.148-0.156-0.188c-0.987-1.138-2.157-1.89-3.467-2.248
	c-0.014-0.002-0.028-0.006-0.044-0.011c-0.275-0.072-0.554-0.128-0.778-0.153c-0.134-0.022-0.276-0.034-0.42-0.044
	C75.506,0.005,75.35,0,75.189,0h-0.015c-0.169,0-0.326,0.005-0.485,0.019c-0.114,0.01-0.261,0.022-0.354,0.035
	c-0.281,0.034-0.563,0.09-0.832,0.162c-0.019,0.005-0.033,0.008-0.045,0.011c-1.313,0.358-2.48,1.11-3.424,2.201
	c-0.039,0.04-0.199,0.233-0.234,0.274c-0.072,0.087-0.144,0.173-0.192,0.24c-0.854,1.108-1.644,2.573-2.726,5.06
	c-1.823,4.176-8.875,21.567-17.035,41.701c-9.719,23.975-20.729,51.139-26.431,64.684c-7.892,15.471-18.436,15.935-18.827,15.945
	c-2.535,0-4.59,2.058-4.588,4.594c0,2.535,2.053,4.595,4.591,4.595h11.813c0.024,0.457,0.106,0.911,0.268,1.354
	c0.58,1.586,1.983,2.726,3.658,2.969l0.395,0.056c0.264,0.033,0.514,0.052,0.755,0.052c1.703,0,3.258-0.763,4.274-2.066
	c0.84,0.717,1.822,1.207,2.866,1.445c0.587,0.262,1.227,0.412,1.896,0.449l0.568,0.059c0.151,0.016,0.311,0.027,0.463,0.027
	c0.252,0,0.5-0.021,0.746-0.064c0.84-0.139,1.836-0.402,3.043-0.807c0.491-0.162,0.936-0.35,1.33-0.552
	c1.86-0.192,3.451-1.149,4.479-2.671c0.063-0.057,0.123-0.113,0.183-0.172c0.593,0.27,1.233,0.402,1.881,0.402
	c0.307,0,0.611-0.028,0.916-0.092l0.23-0.045l0.542-0.043c0.183-0.007,0.361-0.023,0.535-0.045c0.036,0.038,0.076,0.075,0.113,0.115
	c0.328,0.332,0.723,0.695,1.166,1.083c0.628,0.539,1.313,1.021,2.047,1.421c0.052,0.027,0.102,0.055,0.155,0.083
	c0.554,0.274,1,0.489,1.357,0.649c0.485,0.254,1.017,0.433,1.566,0.52c0.158,0.051,0.317,0.09,0.481,0.125
	c0.33,0.063,0.723,0.127,1.236,0.197c0.193,0.023,0.392,0.037,0.59,0.037c0.157,0,0.314-0.01,0.475-0.022l2.167-0.226
	c0.716-0.073,1.401-0.315,2.006-0.702c0.024-0.017,0.082-0.052,0.106-0.067c0.418-0.277,0.715-0.476,0.908-0.584
	c0.609-0.346,1.154-0.81,1.717-1.466c0.208-0.239,0.415-0.507,0.629-0.806c0.311-0.352,0.578-0.721,0.804-1.105
	c-0.105,0.814,0.01,1.654,0.346,2.424c0.002,0.014,0.005,0.025,0.005,0.035c0.326,3.01,2.684,5.111,5.73,5.111
	c0.263,0,0.532-0.02,0.874-0.057c0.089-0.015,0.178-0.025,0.267-0.039c0.267,0.729,0.672,1.371,1.189,1.894l0.241,0.237
	c0.873,0.888,2.059,1.365,3.267,1.365c0.484,0,0.974-0.078,1.453-0.237c1.433-0.478,2.521-1.624,2.947-3.043
	c0.271,0.03,0.532,0.043,0.793,0.043c1.862,0,3.488-0.728,4.586-2.054c0.405-0.483,0.806-1.062,1.261-1.813
	c0.358-0.606,0.578-1.334,0.631-2.038c0.024-0.283,0.022-0.543,0.013-0.818c-0.003-0.93-0.109-1.738-0.331-2.479
	c0.031-0.028,0.063-0.065,0.092-0.103c0.271,0.58,0.619,1.127,1.044,1.647c0.321,0.394,0.604,0.72,0.883,1.026
	c0.209,0.226,0.416,0.449,0.605,0.633c0.257,0.252,0.54,0.473,0.848,0.656c0.9,0.541,1.952,0.959,3.146,1.25
	c0.814,0.195,1.636,0.293,2.442,0.293h0.105c0.311,0.06,0.629,0.095,0.941,0.095h0.031c0.494-0.004,1.125-0.084,1.809-0.353
	c1.176-0.211,2.35-0.672,3.51-1.377c0.961-0.592,1.75-1.188,2.391-1.809h0.386c1.426,0,2.741-0.663,3.598-1.738
	c0.163-0.078,0.318-0.164,0.475-0.25c0.781,0.791,1.729,1.365,2.776,1.672c0.498,0.478,1.063,0.907,1.692,1.281
	c0.136,0.08,0.273,0.155,0.421,0.223c0.043,0.029,0.13,0.09,0.254,0.188c1.332,1.075,2.877,1.645,4.469,1.645
	c0.112,0,0.219-0.004,0.326-0.012l2.115-0.15c0.98-0.064,1.948-0.483,2.697-1.127c0.043-0.02,0.085-0.039,0.124-0.06
	c0.76,0.474,1.637,0.777,2.58,0.884l0.266,0.029c0.165,0.016,0.331,0.023,0.496,0.023c1.385,0,2.707-0.627,3.586-1.723
	c0.22-0.275,0.399-0.576,0.55-0.886h14.883c2.538,0,4.619-2.058,4.621-4.595C150.391,132.39,148.362,130.336,145.827,130.333z
	 M126.484,137.508c-0.493-0.053-0.855-0.279-1.081-0.672c-0.178-0.313-0.418-0.532-0.729-0.662l-0.029-0.012l-0.021-0.023
	c-0.181-0.18-0.461-0.367-0.834-0.555l-0.854-0.838c-0.076-0.031-0.149-0.043-0.193-0.043c-0.04,0-0.146,0-0.179,0.309
	c-0.054,0.459-0.21,0.925-0.462,1.382c-0.279,0.388-0.585,0.644-0.93,0.774c-0.294,0.109-0.583,0.306-0.861,0.588l-0.045,0.045
	l-2.118,0.148c-0.54,0-1.067-0.207-1.584-0.623c-0.477-0.383-0.884-0.646-1.207-0.785c-0.527-0.314-0.938-0.676-1.244-1.08
	c-0.269-0.355-0.636-0.551-1.128-0.594c-0.587-0.054-1.072-0.351-1.443-0.877c-0.354-0.512-0.623-0.951-0.818-1.345
	c-0.202-0.403-0.396-0.972-0.564-1.688c-0.208-0.865-0.434-1.112-0.547-1.186l-0.063-0.033l-0.271,1.537
	c-0.063,0.189-0.168,0.371-0.325,0.586c-0.181,0.237-0.397,0.359-0.647,0.359l-0.335,0.07h-0.034c-0.168,0-0.313-0.02-0.389-0.125
	l-0.047-0.067c-0.324,0.499-0.645,0.905-0.947,1.212c-0.351,0.346-0.915,0.549-1.688,0.598l-0.073,0.006l-0.811-0.809l0.067-0.109
	c0.304-0.514,0.637-0.863,0.981-1.053c0.188-0.104,0.476-0.453,0.764-1.546c0.099-0.308,0.261-0.948,0.477-1.869
	c0.214-0.922,0.338-1.327,0.431-1.513l-0.25-0.245l0.264-0.265c-0.128-0.385-0.178-1.01-0.155-1.907
	c0.022-0.935-0.036-1.619-0.175-2.033c-0.106-0.509-0.252-1.071-0.441-1.692c-0.197-0.651-0.347-1.209-0.444-1.703
	c-0.047-0.232-0.214-0.691-0.503-1.363c-0.289-0.674-0.533-1.159-0.722-1.439c-0.147-0.25-0.432-0.701-0.844-1.363
	c-0.121-0.188-0.22-0.348-0.304-0.482l0.272,0.82c0.146,0.438,0.289,0.851,0.438,1.24c0.147,0.393,0.246,0.662,0.296,0.812
	c0.146,0.347,0.348,1.021,0.593,1.994c0.241,0.979,0.412,1.612,0.508,1.896c0.061,0.879,0.096,1.6,0.121,2.215
	c0.025,0.619-0.013,1.357-0.112,2.263c0,0.776-0.074,1.553-0.227,2.29c-0.145,0.73-0.241,1.464-0.285,2.182l-0.005,0.035
	l-0.713,1.432l0.029,0.143c-0.303,0.13-0.523,0.4-0.685,0.822c-0.129,0.353-0.271,0.648-0.418,0.91l0.027,0.059l1.499,1.295h-2.514
	c-0.21,0.334-0.448,0.643-0.724,0.918c-0.391,0.488-1.05,1.02-1.938,1.564c-0.882,0.539-1.729,0.816-2.519,0.834
	c-0.161,0.146-0.301,0.219-0.434,0.221h-0.04l-0.281-0.145c-0.24,0.033-0.483,0.051-0.727,0.051c-0.454,0-0.915-0.058-1.379-0.17
	c-0.723-0.175-1.341-0.414-1.845-0.716c-0.131-0.132-0.275-0.286-0.425-0.448c-0.225-0.244-0.457-0.515-0.721-0.836
	c-0.464-0.568-0.698-1.17-0.698-1.797l0.083-1.074l0.105-0.039c0.095-0.031,0.187-0.149,0.263-0.342
	c0.104-0.258,0.232-0.515,0.381-0.762c0.152-0.259,0.364-0.496,0.624-0.706c0.224-0.177,0.521-0.267,0.881-0.267
	c0.087,0,0.175,0,0.271,0.013c0,0,0.627-0.069,0.629-0.069c0.343,0,0.684,0.116,1.029,0.358c0.313,0.215,0.59,0.397,0.834,0.539
	l0.065,0.043l0.166,0.993l-0.011,0.027c-0.152,0.664-0.337,1.172-0.566,1.555c-0.255,0.42-0.813,0.652-1.716,0.707l-0.128,0.004
	l-0.037-0.116c-0.055-0.158-0.146-0.349-0.27-0.365c-0.349-0.049-0.438-0.558-0.475-0.998l-0.005-0.034l0.18-0.543l0.459-0.195
	l-0.012-0.066c-0.195,0.051-0.413,0.12-0.651,0.212c-0.169,0.065-0.323,0.179-0.229,0.574l0.007,0.86
	c0.045,0.065,0.092,0.16,0.137,0.3l0.008,0.028v0.024c0,0.078,0.012,0.147,0.028,0.203c0.029,0.094,0.045,0.196,0.045,0.312
	c0.015,0.039,0.026,0.067,0.041,0.096c0.111-0.045,0.245-0.045,0.305-0.045c0.168,0,0.262,0.07,0.307,0.138
	c0.086,0.106,0.098,0.267,0.039,0.479c-0.014,0.067-0.071,0.272,0.393,0.504c0.459,0.207,0.898,0.314,1.302,0.314
	c0.04,0,0.079-0.003,0.121-0.005c0.278-0.013,0.574-0.035,0.882-0.058c0.202-0.017,0.403-0.032,0.616-0.053
	c0.282,0,0.665-0.107,1.157-0.316c0.497-0.211,0.999-0.469,1.484-0.76c0.477-0.287,0.887-0.599,1.218-0.928
	c0.008-0.01,0.01-0.014,0.018-0.021h-0.076c0.081-0.063,0.171-0.121,0.247-0.188c0.238-0.273,0.328-0.47,0.353-0.586l-0.002-0.496
	l0.32,0.108l0.562-0.808v-1.412l-0.513-0.058l-1.938,0.08l-0.04-0.122c-0.082-0.236-0.273-0.408-0.592-0.518
	c-0.304-0.1-0.666-0.369-0.666-1.075l0.076-0.24c-0.035-0.497,0.029-0.821,0.197-1c0.092-0.097,0.213-0.146,0.351-0.146
	c0.042,0,0.084,0.002,0.13,0.01c0.043,0.009,0.083,0.014,0.126,0.014c0.276,0,0.59-0.172,0.935-0.518
	c0.351-0.254,0.608-0.489,0.795-0.721c0.186-0.237,0.381-0.549,0.567-0.924c0.344-0.844,0.619-1.572,0.834-2.216
	c0.197-0.596,0.37-1.325,0.514-2.163h-0.15l0.035-0.197c0.097-0.584,0.157-1.088,0.182-1.486c0.022-0.402,0-0.784-0.07-1.133
	l-0.221-1.098c-0.076-0.389-0.112-0.83-0.112-1.324c0-0.739-0.226-1.437-0.666-2.066c-0.473-0.662-0.832-1.275-1.081-1.825
	c-0.145-0.426-0.479-0.929-0.998-1.497c-0.527-0.572-1.127-1.15-1.784-1.708c-0.651-0.558-1.322-1.032-1.992-1.413
	c-0.655-0.375-1.219-0.566-1.68-0.566c-0.26-0.078-0.378-0.172-0.418-0.307c-0.071,0.014-0.108,0.021-0.123,0.035
	c-0.018,0.014-0.021,0.049-0.021,0.102c0,0.021,0.017,0.134,0.269,0.58c0.209,0.363,0.287,0.627,0.247,0.819
	c0.048,0.22,0.102,0.405,0.169,0.554c0.081,0.196,0.12,0.492,0.123,0.912c0.049,0.746-0.033,1.367-0.235,1.826
	c-0.2,0.449-0.442,0.908-0.745,1.414c-0.461,0.67-1.275,1.258-2.424,1.758c-0.771,0.334-1.552,0.504-2.32,0.504
	c-0.359,0-0.722-0.037-1.076-0.11c-0.127,0.096-0.319,0.185-0.58,0.271c-0.015,0-0.021,0.006-0.027,0.006
	c-0.171,0-0.311-0.074-0.461-0.217h-0.568l-0.039-0.023c-0.239-0.146-0.504-0.289-0.796-0.438c-0.29-0.145-0.606-0.287-0.943-0.436
	c-0.326-0.211-0.576-0.385-0.771-0.532c-0.193-0.146-0.434-0.313-0.727-0.509c-0.436-0.239-0.904-0.606-1.384-1.086
	c-0.475-0.475-0.865-0.967-1.159-1.461c-0.144-0.236-0.308-0.446-0.488-0.633c-0.205-0.201-0.41-0.457-0.609-0.754
	c-0.223-0.514-0.25-0.674-0.25-0.755c-0.002-0.013-0.047-0.147-0.479-0.706c-0.308-0.404-0.586-0.986-0.834-1.738
	c-0.187-0.558-0.465-0.908-0.853-1.062l0.588,2.289c0.007,0.138,0.074,0.481,0.546,1.707c0.385,1,0.627,1.614,0.77,1.938
	c0.094,0.287,0.37,0.81,0.829,1.555c0.46,0.746,0.808,1.244,1.042,1.476c0.222,0.323,0.381,0.582,0.506,0.808
	c0.104,0.19,0.338,0.377,0.701,0.556c0.272,0.169,0.491,0.383,0.654,0.651c0.133,0.228,0.321,0.465,0.56,0.701
	c0.216,0.125,0.47,0.305,0.719,0.5c0.239,0.193,0.483,0.361,0.719,0.502c0.231,0.142,0.544,0.283,0.929,0.428
	c0.146,0.057,0.55,0.209,0.666,0.511l1.702,0.065c0.371-0.045,0.756-0.272,1.114-0.676c0.422-0.477,0.765-0.732,1.052-0.789
	c0,0,0.002,0,0.004,0c0.188,0,0.344,0.115,0.525,0.356c0.174,0.231,0.252,0.401,0.258,0.543l0.061,0.165l0.021,0.055l-0.021,0.053
	c-0.11,0.336-0.202,0.523-0.295,0.617c-0.006,0.008-0.072,0.108-0.137,0.67l-0.005,0.059l-0.483,0.484
	c-0.081,0.08-0.215,0.232-0.18,0.336l0.01,1.205l-0.116,0.041c-0.346,0.112-0.474,0.207-0.523,0.252
	c-0.099,0.104-0.27,0.147-0.539,0.147c-0.114,0-0.247-0.013-0.402-0.026l-0.635,0.075c-0.231,0-0.392-0.017-0.521-0.04
	c-0.02-0.005-0.047-0.009-0.071-0.014c0.124,0.111,0.303,0.261,0.571,0.439c0.461,0.319,0.984,0.623,1.558,0.908
	c0.588,0.295,1.167,0.551,1.713,0.762c0.437,0.176,0.808,0.263,1.098,0.263c0.058,0,0.119-0.005,0.173-0.015h0.612
	c0.071,0,0.116-0.004,0.146-0.008c0.025-0.064,0.084-0.144,0.177-0.236l0.068-0.066l0.604,0.152c0.336-0.241,0.773-0.51,1.308-0.812
	c0.509-0.29,0.758-0.638,0.758-1.063l-0.109-0.658l-0.368,0.371l-0.955,0.219l-0.192,0.193l-1.06-1.766l0.095-0.092
	c0.186-0.188,0.399-0.477,0.634-0.854c0.276-0.441,0.599-0.668,0.95-0.668h0.881c0.618,0.06,1.072,0.424,1.367,1.093
	c0.281,0.646,0.333,1.349,0.156,2.092c-0.182,0.739-0.669,1.44-1.451,2.073c-0.785,0.631-1.971,0.978-3.518,1.025
	c-0.141,0.008-0.286,0.01-0.431,0.01c-0.775,0-1.505-0.114-2.161-0.349c-0.769-0.272-1.485-0.638-2.133-1.087
	c-0.637-0.439-1.25-0.925-1.813-1.445c-0.559-0.506-1.113-0.985-1.646-1.426c-0.933-0.732-1.92-1.846-2.93-3.3
	c-1.007-1.446-1.766-2.78-2.256-3.956c-0.388-0.872-0.708-1.643-0.955-2.281c-0.248-0.64-0.498-1.434-0.74-2.367
	c-0.247-0.535-0.385-0.922-0.409-1.162c-0.023-0.219-0.06-0.698-0.107-1.439c-0.062-0.271-0.119-0.35-0.138-0.37
	c-0.084-0.081-0.16-0.256-0.16-0.96c0-0.191-0.013-0.393-0.032-0.607c-0.01-0.057-0.021-0.16-0.246-0.178
	c-0.013,0.055-0.026,0.18-0.006,0.444c0.023,0.417,0.069,0.907,0.145,1.454c0.069,0.566,0.137,1.121,0.18,1.66
	c0.054,0.556,0.076,0.972,0.076,1.262c0.047,0.711,0.23,1.572,0.544,2.555c0.313,0.994,0.478,1.902,0.485,2.695l0.367,0.809v0.035
	c0,0.189,0.076,0.614,0.429,1.555c0.286,0.77,0.459,1.271,0.516,1.535c0.378,0.572,0.641,1.021,0.79,1.365
	c0.237,0.237,0.423,0.449,0.545,0.623c0.124,0.176,0.263,0.385,0.412,0.631c0.239,0.34,0.497,0.717,0.769,1.135
	c0.262,0.404,0.573,0.791,0.934,1.148c0.355,0.355,0.765,0.668,1.214,0.926c0.36,0.217,0.759,0.321,1.176,0.321h0.105
	c0.042-0.147,0.124-0.345,0.309-0.377c0.01-0.032,0.029-0.106,0.029-0.274c0.083-0.365,0.229-0.529,0.431-0.529
	c0.12,0,0.238,0.063,0.369,0.193c0.246,0.139,0.433,0.385,0.519,0.695c0.079,0.287,0.117,0.527,0.117,0.741v0.067l-1.394,1.398
	v0.074c-0.074,0.808-0.572,0.976-0.978,0.976h-1.139c0.386,0.501,0.836,0.929,1.343,1.271c0.586,0.4,1.223,0.799,1.897,1.185
	c0.643,0.002,0.822,0.05,0.908,0.095c0.027,0.01,0.156,0.051,0.761,0.055c0.231-0.143,0.475-0.293,0.727-0.452
	c0.217-0.138,0.276-0.24,0.262-0.284l-0.018-0.053c0,0,0.032-0.094,0.034-0.11l-0.005-0.005c-0.05-0.049-0.074-0.117-0.089-0.236
	c-0.713-0.055-0.959-0.494-1.027-0.863l-0.005-0.326c0-0.346,0.155-0.648,0.464-0.898c0.3-0.246,0.646-0.369,1.024-0.369
	c0.388,0,0.737,0.153,1.037,0.454c0.303,0.304,0.432,0.806,0.377,1.49c0.055,0.242-0.026,0.558-0.247,0.888
	c-0.202,0.309-0.474,0.598-0.801,0.877c-0.332,0.28-0.68,0.5-1.032,0.649c-0.192,0.083-0.376,0.125-0.546,0.125
	c-0.148,0-0.286-0.03-0.416-0.095c-0.023,0.01-0.038,0.02-0.045,0.023c-0.023,0.072-0.092,0.18-0.307,0.18
	c0,0-0.496,0.072-0.501,0.072c-0.638,0-1.301-0.203-2.008-0.607c-0.694-0.397-1.35-0.873-1.938-1.416
	c-0.588-0.536-1.136-1.11-1.629-1.704c-0.496-0.593-0.853-1.095-1.05-1.499c-0.346-0.739-0.661-1.396-0.952-1.983
	c-0.302-0.596-0.599-1.295-0.89-2.071c-0.098-0.289-0.227-0.608-0.398-0.98c-0.179-0.372-0.313-0.711-0.409-1.007
	c-0.059-0.468-0.131-0.854-0.223-1.183c-0.098-0.33-0.242-0.691-0.431-1.07l-0.38-1.883l-0.034,0.314
	c0.179,0.416,0.191,0.479,0.134,0.564l-0.046,0.066l0.064,0.063l-0.01,0.081c-0.05,0.423,0,1.203,0.147,2.31
	c0.142,1.099,0.236,1.88,0.285,2.322c0.105,0.205,0.198,0.493,0.297,0.888c0.101,0.393,0.197,0.813,0.297,1.252
	c0.097,0.454,0.157,0.868,0.188,1.237c0.015,0.312,0.015,0.539-0.019,0.706c0.477,0.332,0.886,0.956,1.218,1.854
	c0.336,0.912,0.701,1.668,1.083,2.239c0.322,0.414,0.837,1.05,1.566,1.931c0.683,0.82,1.302,1.285,1.845,1.371l0.16,0.031
	l-0.025,0.159c-0.07,0.517-0.355,0.596-0.519,0.596c-0.036,0-0.078-0.005-0.118-0.017c-0.073-0.012-0.154-0.02-0.257-0.02
	c-0.207,0-0.469,0.033-0.776,0.094c-0.205,0.006-0.457,0.074-0.775,0.211c-0.32,0.139-0.55,0.275-0.684,0.406
	c-0.291,0.197-0.47,0.377-0.554,0.543c-0.104,0.205-0.28,0.43-0.518,0.676c-0.061,0.158-0.114,0.26-0.176,0.322
	c0,0-0.058,0.071-0.182,0.447c-0.119,0.25-0.136,0.311-0.138,0.316c-0.005,0.131-0.102,0.213-0.41,0.326l0.122,0.469l-0.079,0.548
	c0.002,0.44,0.037,0.78,0.104,0.985c0.063,0.195,0.146,0.345,0.252,0.453l0.33,0.326c0.102,0.102,0.201,0.272,0.289,0.524
	l0.679-0.06c0.144,0,0.214-0.047,0.264-0.158c0.061-0.139,0.126-0.254,0.202-0.353c-0.036-0.038-0.102-0.063-0.18-0.087
	c-0.027-0.01-0.052-0.02-0.086-0.023l-0.416-0.084l-0.844-0.842l0.031-0.101c0.103-0.304,0.281-0.644,0.542-0.998
	c0.24-0.347,0.576-0.519,1.001-0.519c0.055,0,0.116,0.002,0.179,0.008h0.005c0.84,0,1.358,0.262,1.529,0.771
	c0.113,0.347,0.153,0.767,0.153,1.22c0.002,0.155,0.014,0.297,0.002,0.465l-0.002,0.039l-0.02,0.035
	c-0.297,0.491-0.576,0.895-0.824,1.192c-0.218,0.265-0.568,0.392-1.053,0.392c-0.152,0-0.313-0.013-0.496-0.033
	c-0.488-0.109-0.855-0.237-1.111-0.385c-0.266-0.148-0.411-0.315-0.458-0.52c-0.063-0.266-0.234-0.454-0.524-0.581l-0.088-0.037
	l-0.389-2.571l0.031-0.053c0.342-0.539,0.608-0.979,0.803-1.316c0.205-0.354,0.535-0.762,0.984-1.211
	c0.25-0.252,0.642-0.57,1.16-0.938c0.448-0.322,0.823-0.557,1.143-0.713c-0.175-0.275-0.418-0.499-0.721-0.648
	c-0.402-0.203-0.764-0.462-1.068-0.769c-0.526-0.522-0.795-0.685-0.926-0.729c-0.21-0.068-0.701-0.148-1.476-0.248
	c-0.104-0.033-0.279-0.093-0.34-0.211c-0.028-0.005-0.078-0.012-0.151-0.012c-0.009,0.007-0.017,0.012-0.019,0.016
	c-0.021,0.059-0.063,0.098-0.136,0.133c0.138,0.342,0.354,0.619,0.657,0.836c0.396,0.291,0.651,0.656,0.762,1.086l0.003,0.775
	c0,0.521-0.108,0.943-0.321,1.27c-0.209,0.306-0.435,0.586-0.682,0.83c-0.238,0.24-0.454,0.502-0.639,0.783
	c-0.179,0.262-0.271,0.627-0.269,1.08v0.051l-0.026,0.043c-0.185,0.273-0.3,0.505-0.345,0.682c-0.043,0.182-0.069,0.341-0.069,0.477
	c0,0.121,0.034,0.289,0.104,0.49c0.08,0.238,0.119,0.555,0.119,0.975c0.012,0.023,0.025,0.043,0.032,0.06
	c0.185,0.045,0.187,0.327,0.187,0.454v0.068l-0.342,0.344c-0.05,0.052-0.079,0.087-0.097,0.105l0.011,0.01l-0.487,3.557
	l-0.015,0.091l-0.237-0.239c-0.067-0.067-0.115-0.154-0.147-0.254c-0.029-0.08-0.046-0.173-0.049-0.275
	c-0.053-0.152-0.09-0.195-0.094-0.204l-0.053-0.048v-0.067c0-0.233,0.045-0.419,0.136-0.569c0.052-0.088,0.1-0.184,0.14-0.291
	c-0.182-0.295-0.303-0.615-0.347-0.951l-0.005-0.03l0.063-0.325l-0.721-1.01v-0.053c0-0.099,0.039-0.26,0.355-0.789
	c0.285-0.479,0.303-0.602,0.303-0.612c0-1.047-0.125-1.464-0.229-1.631c-0.175-0.269-0.405-0.649-0.699-1.144
	c-0.239-0.43-0.519-0.826-0.83-1.188c-0.324-0.372-0.592-0.77-0.791-1.172l-0.018-0.035v-0.04c0-0.908,0.047-1.501,0.155-1.813
	c0.107-0.34,0.276-0.562,0.495-0.652c0.173-0.075,0.337-0.139,0.491-0.188c0.012-0.006,0.1-0.041,0.232-0.355
	c-0.363,0.063-0.644,0.094-0.843,0.094H71.6c-0.113,0-0.23,0.04-0.344,0.12c-0.151,0.097-0.418,0.292-0.806,0.581
	c-0.307,0.207-0.695,0.496-1.167,0.878c-0.394,0.313-0.614,0.62-0.662,0.92c0.383,0.13,0.808,0.407,1.294,0.843
	c0.515,0.469,0.884,0.864,1.091,1.17c0.311,0.518,0.501,1.12,0.58,1.801c0.065,0.619,0.207,1.043,0.425,1.256l0.12,0.123
	l-0.12,0.115c-0.126,0.125-0.213,0.254-0.252,0.375l0.009,0.742l-0.681,0.779l-0.352,0.408l-1.377,0.308
	c-0.123,0.019-0.227,0.024-0.32,0.024c-0.69,0-1.092-0.351-1.165-1.012c-0.039-0.322-0.081-0.593-0.136-0.81
	c-0.05-0.21-0.107-0.374-0.176-0.483l-0.052-0.089l0.057-0.089c0.192-0.292,0.352-0.544,0.475-0.761
	c0.139-0.257,0.381-0.444,0.716-0.554h0.06c0.249,0,0.515,0.051,0.851,0.145c0.403,0.118,0.646,0.396,0.705,0.8l-0.074,0.562
	c0,0.229-0.104,0.426-0.291,0.556c-0.133,0.084-0.262,0.157-0.39,0.207v0.005l-0.086,0.434h0.523c0.059,0,0.206-0.051,0.487-0.326
	c0.062-0.061,0.12-0.116,0.195-0.203c0.411-0.467,0.474-0.686,0.474-0.77l-0.074-0.642v-0.851c-0.398-0.604-0.58-1.045-0.549-1.351
	c0.011-0.094-0.066-0.396-0.932-1.142c-0.388-0.287-0.752-0.553-1.093-0.801c-0.315-0.224-0.778-0.361-1.382-0.408l-0.216-0.016
	l0.067-0.201c0.045-0.136,0.201-0.36,1.044-1.068c0.596-0.502,0.989-0.896,1.178-1.178c0.399-0.401,0.725-0.826,0.987-1.274
	c0.267-0.464,0.522-0.916,0.767-1.354c0.586-1.066,1.025-2.049,1.312-2.904c0.253-0.661,0.456-1.155,0.633-1.525
	c0.17-0.369,0.38-0.873,0.616-1.494l1.388-7.822c0.063-0.313,0.045-0.389,0.043-0.396c-0.003-0.011-0.009-0.018-0.009-0.027
	c-0.045,0.219-0.108,0.428-0.189,0.627c-0.163,0.389-0.22,0.844-0.175,1.354l0.004,0.04l-0.191,0.449l0.07,0.068l-0.846,2.231
	l-0.14,0.565l-0.823,2.619l-0.029,0.028c-0.035,0.038-0.152,0.2-0.439,0.938c-0.222,0.563-0.412,0.979-0.563,1.228
	c-0.192,0.392-0.396,0.744-0.59,1.041c-0.2,0.296-0.42,0.614-0.664,0.96c-0.193,0.384-0.449,0.743-0.756,1.045l-0.88,0.883
	c-0.23,0.232-0.474,0.547-0.711,0.922c-0.209,0.34-0.463,0.506-0.755,0.506c-0.054,0-0.118-0.004-0.183-0.019
	c-0.178,0.29-0.596,0.586-1.264,0.899c-0.599,0.279-1.078,0.414-1.472,0.414c-0.119,0-0.227-0.016-0.328-0.035H64.02
	c-0.457,0-0.816-0.068-1.055-0.203c-0.194-0.105-0.529-0.162-0.982-0.162h-0.139l-0.029-0.134c-0.051-0.263-0.123-0.374-0.175-0.427
	l-0.255-0.262c-0.083-0.08-0.178-0.201-0.281-0.355c-0.108-0.166-0.191-0.481-0.244-0.949c-0.002-0.203-0.026-0.439-0.071-0.729
	c-0.06-0.351-0.021-0.592,0.119-0.733l0.033-0.033l1.221-0.304h0.015c0.74,0,0.987,0.342,1.071,0.631
	c0.099,0.359,0.147,0.639,0.149,0.85v0.367l-0.684,0.686h-0.514c0.241,0.297,0.706,0.504,1.383,0.613l0.401-0.134
	c0.226-0.01,0.461-0.065,0.764-0.179c0.314-0.122,0.628-0.266,0.933-0.434c0.307-0.164,0.593-0.354,0.855-0.57
	c0.161-0.131,0.28-0.27,0.352-0.408c-0.219-0.023-0.372-0.09-0.471-0.186c-0.143-0.141-0.193-0.31-0.159-0.482
	c0.021-0.111,0.033-0.238,0.033-0.37c0-0.065-0.017-0.104-0.107-0.134c-0.194-0.088-0.372-0.125-0.538-0.125
	c-0.104,0-0.207,0.02-0.308,0.05c-0.091,0.03-0.188,0.045-0.288,0.045c-0.295,0-0.633-0.114-1.025-0.354l-0.102-0.063l0.242-1.214
	l0.41-1.224l1.051-0.1l0.042,0.131c0.099,0.301,0.275,0.35,0.404,0.358c0.05,0.005,0.099,0.01,0.148,0.01
	c0.199,0,0.408-0.037,0.627-0.11c0.285-0.095,0.563-0.201,0.828-0.324c0.309-0.137,0.445-0.235,0.498-0.295l2.059-2.055
	c0.219-0.404,0.449-0.814,0.672-1.179c0.219-0.367,0.449-0.769,0.695-1.207c0.191-0.29,0.381-0.769,0.573-1.435
	c0.191-0.682,0.412-1.063,0.682-1.186l0.71-2.699l0.297-0.459l0.8-5.18l0.223-3.578v-0.42l-0.549-0.039l0.074,3.77l-0.666,2.179
	c-0.099,0.685-0.414,1.541-0.968,2.599c-0.53,1.012-0.872,1.838-1.012,2.455c-0.114,0.235-0.271,0.543-0.494,0.958
	c-0.222,0.423-0.485,0.858-0.779,1.3c-0.292,0.438-0.563,0.854-0.805,1.244c-0.24,0.385-0.41,0.678-0.506,0.866
	c-0.176,0.19-0.457,0.494-0.866,0.953c-0.425,0.474-0.771,0.796-1.032,0.953c-0.341,0.146-0.665,0.379-0.991,0.706
	c-0.347,0.346-0.677,0.621-0.982,0.828c-0.482,0.387-1.16,0.81-1.999,1.256c-0.438,0.246-0.886,0.47-1.329,0.664
	c-0.442,0.197-0.793,0.387-1.074,0.576l-0.045,0.028h-0.05c-0.479,0-0.805,0.013-0.968,0.035c-0.17,0.026-0.375,0.06-0.613,0.106
	l-0.846,0.076l-0.02-0.002c-0.353-0.052-0.917-0.186-1.677-0.406c-0.794-0.229-1.283-0.447-1.502-0.666
	c-0.281-0.182-0.64-0.514-1.035-0.963c-0.414-0.463-0.651-0.938-0.7-1.416l0.068-0.981c0-0.335,0.22-0.696,0.647-1.071
	c0.428-0.371,0.799-0.553,1.135-0.553c0.068-0.025,0.17-0.04,0.267-0.04c0.326,0,0.737,0.172,0.858,0.993l0.08,0.232l-0.01,0.039
	c-0.064,0.32-0.15,0.48-0.287,0.527c0.02,0-0.029,0.118-0.079,0.561l-0.012,0.125l-1.167,0.23c-0.096,0.109-0.143,0.229-0.14,0.359
	c-0.003,0.342,0.201,0.693,0.603,1.048c0.553,0.493,0.756,0.604,0.824,0.633c0.286,0.067,0.659,0.108,1.097,0.108
	c0.111,0,0.228-0.006,0.346-0.01c0.616-0.025,1.12-0.035,1.515-0.035c0.123,0,0.381-0.045,0.932-0.248
	c0.447-0.166,0.926-0.373,1.417-0.615c0.501-0.258,0.931-0.494,1.306-0.729c0.234-0.146,0.402-0.293,0.498-0.438
	c-0.646-0.059-0.813-0.36-0.835-0.617c-0.018-0.234-0.342-0.451-0.941-0.623c-0.325-0.107-0.672-0.35-1.065-0.738
	c-0.4-0.404-0.58-0.813-0.523-1.207v-0.418c0-0.322,0.068-0.548,0.218-0.695c0.112-0.115,0.267-0.172,0.448-0.172l0.064,0.004
	c0.063,0.002,0.131,0.006,0.188,0.006c0.296,0,0.367-0.055,0.382-0.071l0.161-0.164l0.104,0.212
	c0.183,0.359,0.396,0.621,0.639,0.776c0.183,0.114,0.474,0.174,0.865,0.174c0.12,0,0.252-0.007,0.39-0.019h0.787
	c0.19-0.344,0.479-0.422,0.692-0.422c0.067,0,0.142,0.01,0.219,0.023c0.089,0.016,0.172,0.025,0.258,0.025
	c0.222,0,0.416-0.063,0.605-0.185c0.061-0.067,0.123-0.149,0.166-0.231c0.063-0.131,0.205-0.25,0.44-0.367l0.035-0.02h0.039
	c0.069,0,0.144-0.02,0.22-0.057c0.102-0.048,0.231-0.104,0.386-0.152c0.438-0.269,0.835-0.593,1.14-0.943
	c0.312-0.358,0.688-0.76,1.146-1.219c0.706-0.711,0.929-1.041,0.992-1.191c0.104-0.26,0.379-0.715,0.824-1.355
	c0.128-0.311,0.335-0.813,0.606-1.473c0.267-0.661,0.475-1.163,0.625-1.508l0.58-2.178l0.646-3.096
	c-0.104,0.15-0.222,0.274-0.344,0.371c-0.203,0.155-0.347,0.316-0.43,0.493c-0.206,0.218-0.313,0.425-0.353,0.687
	c-0.054,0.31-0.158,0.643-0.305,0.992c-0.105,0.209-0.243,0.465-0.411,0.785c-0.167,0.311-0.275,0.538-0.32,0.67
	c-0.284,0.573-0.409,0.729-0.482,0.801c-0.045,0.045-0.15,0.188-0.326,0.606c-0.207,0.414-0.533,0.916-0.979,1.5
	c-0.449,0.603-0.844,0.978-1.21,1.146c-0.104,0.102-0.271,0.242-0.508,0.43c-0.246,0.197-0.533,0.408-0.854,0.632
	c-0.302,0.213-0.568,0.425-0.783,0.64l-0.438,0.438l-2.176,0.58l0.021,0.091l-1.843,0.079l-0.39,0.23l-1.272-0.316l-0.024-0.018
	c-0.627-0.431-1.186-0.773-1.668-1.016c-0.521-0.26-1.047-0.807-1.607-1.676c-0.354-0.549-0.58-1.008-0.682-1.364
	c-0.104-0.362-0.144-0.714-0.115-1.049c0.024-0.326,0.074-0.677,0.148-1.05c0.07-0.348,0.078-0.84,0.033-1.457l-0.005-0.065
	l0.74-0.965c-0.449,0.097-0.984,0.292-1.6,0.58c-0.844,0.399-1.466,0.711-1.896,0.95c-0.099,0.035-0.296,0.146-0.815,0.604
	c-0.412,0.363-0.664,0.593-0.764,0.687c-0.094,0.101-0.315,0.341-0.648,0.728c-0.35,0.397-0.548,0.62-0.595,0.67
	c-0.817,0.72-1.546,1.835-2.167,3.321c-0.629,1.492-0.942,3.025-0.94,4.563l-0.069,2.252h0.319l-0.035,0.195
	c-0.094,0.563-0.02,1.355,0.222,2.357c0.231,0.998,0.497,1.693,0.775,2.063c0.444,0.646,0.829,1.229,1.146,1.739
	c0.29,0.473,0.86,0.805,1.692,0.988l0.133,0.029c0,0-0.002,1.43,0,1.676c-0.002,0.203-0.028,0.484-0.241,0.588
	c-0.104,0.056-0.236,0.107-0.392,0.158c-0.049,0.02-0.201,0.104-0.503,0.524l-0.039,0.062l-1.047,0.129l0.2,0.6l-2.332-0.979
	c0.146,0.74,0.385,1.304,0.713,1.668c0.363,0.414,0.729,0.938,1.09,1.552c0.019,0.03,0.035,0.054,0.053,0.085h0.058
	c0.788,0,0.802,0.021,0.85,0.131l0.042,0.104l-0.077,0.084c0.006,0-0.015,0.061-0.065,0.258c-0.021,0.074-0.043,0.162-0.072,0.281
	c0-0.004,0.002-0.004,0.002-0.004c0.021,0,0.088,0.082,0.326,0.232c0.25,0.16,0.533,0.329,0.87,0.511l0.956,0.513
	c0.274,0.148,0.428,0.18,0.504,0.18c0.021,0,0.045-0.002,0.061-0.01l0.029-0.006l1.152,0.043l0.714,0.031
	c0.183-0.031,0.634-0.217,1.579-0.923c0.734-0.549,1.104-1.05,1.104-1.479v-0.127l-0.696,0.951l-1.107,0.084l-0.826-0.826
	c-0.299-0.303-0.451-0.726-0.451-1.26c-0.057-0.275,0.097-0.586,0.466-0.896c0.28-0.242,0.452-0.472,0.489-0.677l0.029-0.133H55.9
	l0.078-0.387l0.153,0.02c0.805,0.104,1.433,0.236,1.911,0.408c0.498,0.188,0.963,0.646,1.371,1.363l0.051,0.084l-0.051,0.088
	c-0.275,0.451-0.354,0.901-0.242,1.377c0.139,0.573-0.062,1.133-0.592,1.663c-0.204,0.298-0.382,0.527-0.542,0.716
	c-0.188,0.219-0.352,0.375-0.483,0.452c-0.223,0.117-0.625,0.376-1.201,0.761l-0.035,0.022l-2.17,0.226
	c-0.385-0.052-0.684-0.099-0.932-0.149c-0.383-0.125-0.506-0.144-0.551-0.144c-0.133,0-0.236-0.035-0.314-0.1
	c-0.331-0.139-0.781-0.352-1.377-0.652c-0.455-0.25-0.872-0.543-1.248-0.867c-0.356-0.307-0.668-0.597-0.924-0.854
	c-0.352-0.351-0.682-0.726-0.974-1.114l-0.454-0.607h-1.309l0.479-0.416l0.447-0.092l-0.05-0.061
	c-0.256-0.461-0.478-0.938-0.678-1.432c-0.188-0.471-0.404-0.934-0.654-1.379l-0.024-0.049l0.074-0.511
	c-0.342-0.556-0.606-1.424-0.801-2.579c-0.196-1.18-0.271-2.156-0.222-2.9c0.049-1.396,0.098-2.461,0.148-3.154
	c0.049-0.688,0.194-1.654,0.443-2.883c0.1-0.313,0.257-0.737,0.483-1.314c0.221-0.566,0.44-1.104,0.661-1.621
	c0.22-0.511,0.415-0.975,0.587-1.393c0.063-0.146,0.108-0.268,0.145-0.359c-0.136,0.116-0.302,0.305-0.512,0.6
	c-0.363,0.505-0.615,0.924-0.752,1.25c-0.302,0.502-0.533,0.931-0.702,1.289c-0.162,0.353-0.362,0.74-0.605,1.185v0.812
	l-0.115,0.037c-0.24,0.08-0.398,0.26-0.478,0.547c-0.098,0.332-0.141,0.684-0.141,1.056v0.169h-0.282l0.063,0.777l-0.748,4.055
	l-0.107,0.107c0.006,0.004,0.006,0.012,0.009,0.017c0.151,0.04,0.216,0.231,0.249,0.327l0.226,3.576
	c0.244,0.27,0.425,0.652,0.551,1.174c0.119,0.503,0.252,0.925,0.396,1.256c0.186,0.471,0.37,0.796,0.553,0.979
	c0.342,0.34,0.455,0.35,0.455,0.35c0.03-0.049,0.099-0.063,0.143-0.063c0.208,0,0.308,0.237,0.399,0.599l0.042,0.174l-0.584,0.115
	c0,0-0.084-0.028-0.101-0.033c-0.099,0.1-0.296,0.1-0.401,0.1l-0.939,0.075l-0.514,0.104l-0.032-0.166
	c-0.039-0.188-0.217-0.359-0.53-0.508c-0.389-0.177-0.667-0.535-0.829-1.055l-0.774-0.075l-1.194-1.794l-1.748,4.52h-0.12
	c-0.03,0-0.206,0.031-0.51,0.643c-0.273,0.542-0.715,0.843-1.308,0.898l-0.037,0.002l-0.032-0.012
	c-0.291-0.097-0.336-0.271-0.336-0.375c-0.002,0-0.002,0-0.004,0c-0.01,0-0.05-0.031-0.169-0.08
	c-0.223,0.512-0.794,0.924-1.698,1.226c-0.962,0.325-1.749,0.534-2.34,0.631l-0.711-0.069c-0.228,0-0.393-0.056-0.498-0.158
	c-0.054-0.055-0.144-0.104-0.267-0.142h-0.032c-0.468,0-0.92-0.175-1.306-0.515c-0.376-0.321-0.729-0.672-1.047-1.041
	c-0.319-0.367-0.606-0.758-0.858-1.16c-0.228-0.36-0.396-0.539-0.517-0.621c-0.501,0.314-0.926,0.602-1.262,0.854
	c-0.357,0.26-0.758,0.612-1.193,1.045c-0.152,0.153-0.364,0.315-0.648,0.5c-0.027,0.017-0.042,0.031-0.067,0.045
	c-0.266,0.174-0.397,0.279-0.459,0.34c-0.188,0.185-0.35,0.396-0.485,0.627c-0.15,0.252-0.399,0.387-0.719,0.387
	c-0.06,0-0.118-0.005-0.183-0.012l-0.312-0.043l0.207-0.237c0.509-0.569,0.947-1.062,1.33-1.485c0.21-0.231,0.408-0.453,0.58-0.643
	c0.479-0.525,0.961-1.035,1.438-1.514l1.355-1.359c0.157-0.154,0.391-0.332,0.688-0.531c0.112-0.121,0.266-0.293,0.438-0.517
	c0.168-0.214,0.33-0.404,0.491-0.565c0.286-0.383,0.679-0.775,1.152-1.146c0.469-0.374,0.813-0.672,1.046-0.906
	c0.245-0.242,0.564-0.588,0.953-1.023c0.387-0.438,0.795-0.892,1.209-1.354c0.404-0.454,0.813-0.89,1.217-1.292
	c0.415-0.417,0.771-0.669,1.094-0.775c0.203-0.101,0.36-0.154,0.474-0.154c0.119,0,0.184,0.055,0.219,0.1
	c0.049,0.063,0.065,0.15,0.039,0.257c-0.056,0.22-0.197,0.468-0.439,0.763c-0.217,0.269-0.572,0.699-1.063,1.285
	c-0.288,0.291-0.588,0.736-0.896,1.328c-0.307,0.588-0.463,1.116-0.459,1.575l0.068,0.334c0.005,0.151,0.047,0.41,0.252,0.963
	c0.18,0.497,0.219,0.96,0.112,1.39c-0.34,1.021-0.812,1.533-1.405,1.533c-0.061,0-0.119-0.005-0.179-0.019l-0.612,0.075
	c-0.369-0.047-0.7-0.127-0.7-0.381c0,0,0,0-0.005,0c-0.017,0-0.084-0.063-0.32-0.141l-0.117-0.039v-1.377l0.353-0.262h-0.548
	c-0.243,0-0.541,0.189-0.866,0.564c-0.346,0.387-0.512,0.797-0.509,1.244v0.59c0.033,0.084,0.167,0.359,0.382,0.765
	c0.276,0.522,0.418,0.606,0.457,0.616l0.026,0.012l0.021,0.018c0.43,0.332,0.741,0.549,0.928,0.646
	c0.198,0.094,0.457,0.261,0.781,0.491l2.542-0.142l1.173-0.749c0.258-0.167,0.656-0.515,1.182-1.042
	c0.386-0.384,0.701-0.725,0.945-1.015c0.238-0.294,0.535-0.711,0.866-1.23c0.192-0.289,0.425-0.668,0.696-1.132
	c0.269-0.471,0.538-0.983,0.799-1.53c0.268-0.556,0.496-1.104,0.692-1.638c0.187-0.517,0.281-0.965,0.281-1.334v-0.055
	c-0.143-0.058-0.184-0.277-0.219-0.431l-0.029-0.156l0.158-0.037c0.325-0.079,0.594-0.454,0.794-1.1
	c0.218-0.693,0.352-1.266,0.399-1.693c0.252-0.574,0.46-1.102,0.633-1.614c0.168-0.511,0.35-1.062,0.551-1.647
	c0.506-1.123,0.949-2.049,1.367-2.853c0.424-0.829,0.936-1.782,1.504-2.83c0.156-0.255,0.402-0.604,0.749-1.049
	c0.343-0.44,0.71-0.906,1.106-1.397c0.389-0.488,0.801-0.949,1.219-1.369l0.844-0.844c0.368-0.252,0.451-0.388,0.475-0.451
	c0.063-0.196,0.304-0.389,0.744-0.611c0.418-0.426,0.82-0.727,1.187-0.885c0.459-0.275,0.908-0.582,1.321-0.896
	c0.387-0.297,0.83-0.445,1.318-0.445c0.055,0,0.104,0,0.158,0.004l1.113-0.967l0.084,0.022c0.128,0.032,0.235,0.047,0.322,0.047
	c0.1,0,0.162-0.021,0.181-0.063c0.091-0.213,0.322-0.398,0.714-0.564c0.285-0.061,0.584-0.086,0.943-0.086
	c0.172,0,0.37-0.059,0.424-0.512l0.015-0.131l0.563-0.078l0.38-0.635l0.291,1.063h0.313c0.458,0.063,0.647,0.144,0.705,0.285
	c0,0,0.005-0.004,0.01-0.004c0.021,0,0.069,0.014,0.162,0.014c0.063,0,0.103-0.002,0.132-0.002c0.032-0.04,0.081-0.069,0.144-0.094
	v-0.06c-0.257-0.129-0.491-0.479-0.724-1.087c-0.258-0.666-0.354-1.172-0.304-1.549l0.156-1.357l0.016-0.031
	c0.345-0.541,0.683-1.006,1.008-1.379c0.349-0.406,1.029-0.608,2.07-0.608c0.405,0.056,0.728,0.239,0.973,0.54
	c0.195,0.238,0.397,0.377,0.603,0.417l0.124,0.024l0.089,1.121l-0.006,0.004c0.074,0.09,0.074,0.248,0.074,0.336v0.099l-0.962,0.577
	l-0.419-0.75l-1.179,0.681l0.066,0.701c-0.004,0.644,0.198,1.062,0.612,1.302c0.438,0.254,0.962,0.454,1.56,0.594l0.947-0.267
	l0.146-0.147c-0.301-0.332-0.447-0.646-0.447-0.953c0-0.32,0.145-0.477,0.269-0.547c0.084-0.05,0.143-0.129,0.18-0.242l0.031-0.084
	l0.714-0.176l0.038,0.006c0.02,0.002,0.041,0.006,0.061,0.006c0.126,0,0.36-0.072,0.748-0.407c0.498-0.44,0.596-0.606,0.612-0.662
	c0.045-0.321,0.118-0.653,0.222-0.953c0.039-0.228,0.093-0.454,0.142-0.649c0.047-0.185,0.063-0.295,0.066-0.361
	c-0.068-0.139-0.124-0.266-0.171-0.383l-0.731-0.002l-0.074-0.219h-0.174c-0.561,0-0.947-0.217-1.146-0.646
	c-0.162-0.348-0.359-0.639-0.59-0.87l-0.049-0.05v-2.321l0.031-0.044c0.452-0.657,1.114-1.193,1.973-1.6
	c0.373-0.172,0.769-0.262,1.178-0.262c0.553,0,1.146,0.163,1.765,0.483c0.292,0.099,0.625,0.321,0.955,0.655l0.848,0.846
	c0.256,0.256,0.49,0.617,0.693,1.078c0.19,0.433,0.385,0.793,0.574,1.074l0.026,0.045v0.592c0.381,0.666,0.696,1.304,0.943,1.891
	c0.211,0.518,0.729,0.795,1.585,0.848l0.286-0.096l0.028,0.024c0.031-0.015,0.104-0.056,0.228-0.149
	c0.212-0.166,0.364-0.296,0.459-0.391c0.218-0.212,0.349-0.525,0.393-0.928c0.053-0.469,0.215-0.871,0.482-1.19
	c0.211-0.256,0.297-0.685,0.254-1.272l-0.008-0.062l0.037-0.047c0.233-0.328,0.428-0.623,0.579-0.874
	c0.144-0.241,0.346-0.542,0.595-0.889c0.313-0.528,0.614-0.819,0.911-0.875c0.199-0.041,0.412-0.215,0.632-0.52l0.047-0.072h0.086
	c0.366,0,0.715-0.067,1.037-0.207c0.173-0.09,0.307-0.174,0.391-0.256l0.047-0.05H81.8c0.813,0,1.623,0.267,2.406,0.8
	c0.803,0.543,1.21,1.246,1.212,2.084l-0.074,1.258c0,0.439-0.308,0.914-0.94,1.44c-0.448,0.371-0.907,0.563-1.361,0.563
	c-0.188,0-0.374-0.031-0.559-0.094l-0.739-0.054c-0.027,0.755,0.1,1.541,0.362,2.339c0.271,0.811,0.698,1.205,1.309,1.205l0.316,0.1
	l0.146-0.738l0.619,0.207c0.012-0.002,0.022-0.002,0.037-0.002c0.077,0,0.215,0.025,0.278,0.133
	c0.016,0.023,0.029,0.059,0.035,0.104c0.012,0.002,0.029,0.002,0.047,0.002c0.088,0,0.199-0.006,0.338-0.021l0.152-0.02l0.032,0.153
	c0.021,0.108,0.038,0.179,0.047,0.212c0.101,0.063,0.101,0.232,0.104,0.405c-0.003,0.771-0.136,1.205-0.417,1.358
	c-0.141,0.078-0.267,0.187-0.375,0.324l0.906,0.346l-0.05,0.154h0.647c0.235,0,0.487-0.174,0.746-0.519
	c0.278-0.375,0.479-0.785,0.598-1.229c0.108-0.428,0.09-0.8-0.066-1.134c-0.141-0.304-0.461-0.452-0.984-0.452l-0.17-0.052l-0.2,0.2
	h-0.068c-0.289,0-0.491-0.063-0.622-0.191c-0.089-0.088-0.133-0.207-0.133-0.347c-0.003-0.276,0.133-0.606,0.398-0.978
	c0.249-0.355,0.572-0.676,0.953-0.955c0.338-0.25,0.676-0.375,1.004-0.375c0.063,0,0.124,0.006,0.184,0.013h0.01
	c0.391,0,0.85,0.144,1.338,0.427c0.481,0.279,0.832,0.58,1.045,0.896c0.295,0.291,0.538,0.76,0.72,1.404
	c0.179,0.639,0.216,1.172,0.111,1.592c-0.102,0.6-0.284,1.07-0.548,1.387c-0.252,0.306-0.553,0.627-0.894,0.967
	c-0.205,0.205-0.589,0.466-1.176,0.798c-0.587,0.333-1.048,0.519-1.415,0.569l-0.56-0.074c-0.11,0.012-0.249,0.014-0.38,0.014
	c-0.958,0-1.607-0.162-1.981-0.494c-0.394-0.338-0.855-0.731-1.39-1.17c-0.304-0.201-0.717-0.656-1.242-1.391
	c-0.539-0.74-0.824-1.333-0.876-1.807l0.067-0.76l-0.217-0.213v-0.107c-0.037-0.059-0.07-0.15-0.109-0.271
	c-0.021,0.963,0.17,1.821,0.578,2.577c0.427,0.819,0.848,1.582,1.243,2.272c0.095,0.186,0.304,0.445,0.632,0.772
	c0.336,0.335,0.721,0.647,1.146,0.933c0.447,0.297,0.851,0.533,1.231,0.722c0.363,0.185,0.687,0.276,0.95,0.276H86.5
	c0.459,0,0.879-0.092,1.246-0.271c0.376-0.193,0.717-0.385,1.01-0.578l0.117-0.076l0.093,0.096c0.2,0.201,0.444,0.42,0.726,0.652
	c0.328,0.275,0.497,0.641,0.502,1.08c-0.005,0.238-0.134,0.533-0.399,0.909c-0.274,0.377-0.484,0.584-0.668,0.647
	c-0.272,0.188-0.539,0.326-0.773,0.404c-0.237,0.078-0.604,0.115-1.118,0.115c-0.111,0.008-0.235,0.016-0.353,0.016
	c-0.598,0-1.101-0.111-1.491-0.328c-0.438-0.242-0.92-0.533-1.478-0.885c-0.119-0.059-0.4-0.25-1.275-1.125
	c-0.873-0.873-1.064-1.154-1.129-1.293c-0.297-0.486-0.558-1.052-0.78-1.668c-0.218-0.598-0.443-1.064-0.677-1.394l-0.033-0.044
	v-0.441l-0.287-0.432l-0.225-2.465c-0.002-0.229,0.072-0.422,0.215-0.592l-0.07-1.326l0.078-0.407l0.07-1.113l0.432-0.86
	c-0.095-0.604-0.075-1.02,0.067-1.27c0.122-0.221,0.341-0.412,0.652-0.564L80.93,95.9c-0.854,0.058-1.54,0.64-2.098,1.774
	c-0.599,1.219-0.898,2.369-0.898,3.41c0,0.375,0.071,0.933,0.217,1.656c0.145,0.729,0.245,1.381,0.295,1.928
	c0.05,0.811,0.164,1.402,0.349,1.772l0.734,1.472c0.391,0.971,0.876,1.818,1.451,2.537c0.583,0.725,1.243,1.467,1.971,2.189
	c0.309,0.22,0.795,0.486,1.419,0.771c0.632,0.295,1.119,0.514,1.464,0.659c0.459,0.177,0.897,0.269,1.291,0.269
	c0.117,0,0.231-0.006,0.342-0.021c0.316-0.047,0.678-0.07,1.068-0.07c0.252,0,0.52,0.01,0.806,0.029
	c0.112-0.045,0.215-0.111,0.311-0.205c0.14-0.141,0.298-0.242,0.471-0.299c0.117-0.063,0.202-0.139,0.218-0.204
	c0.056-0.284,0.261-0.319,0.345-0.319c0.215,0,0.344,0.006,0.402,0.103l1.333-1.601c-0.035-0.359-0.027-0.754,0.254-0.807
	c-0.008-0.005,0.05-0.059,0.05-0.316l-0.074-0.789c-0.002-0.469-0.236-1.026-0.704-1.684c-0.461-0.642-0.922-1.015-1.366-1.105
	l-0.162-0.029l0.131-0.668h0.142c0.272,0,0.521-0.047,0.744-0.135c0.259-0.105,0.604-0.159,1.018-0.159
	c0.152-0.024,0.338-0.038,0.529-0.038c0.189,0,0.389,0.014,0.588,0.038c0.404,0.054,0.764,0.128,1.063,0.228
	c0.304,0.104,0.863,0.34,1.671,0.705c0.802,0.365,1.304,0.646,1.527,0.854c0.339,0.146,0.598,0.284,0.771,0.409
	c0.171,0.125,0.402,0.281,0.693,0.475c0.213,0.207,0.439,0.387,0.695,0.547c0.26,0.168,0.488,0.299,0.681,0.396
	c0.479,0.369,0.907,0.793,1.305,1.293c0.389,0.479,0.727,0.873,1.018,1.16c0.232,0.133,0.558,0.459,0.965,0.967
	c0.396,0.492,0.776,1.025,1.147,1.593c0.362,0.558,0.711,1.127,1.034,1.7c0.322,0.566,0.569,0.984,0.765,1.271
	c0.696,1.195,1.147,2.352,1.347,3.443c0.135,0.307,0.346,0.833,0.613,1.546c0.281,0.729,0.48,1.242,0.622,1.569l0.013,0.027
	l0.071,1.362l0.304,0.302l-0.007,0.077c-0.034,0.354-0.031,0.524-0.024,0.603c0.104,0.031,0.247,0.125,0.488,0.365l0.052,0.051v0.07
	c0,0.049,0.013,0.176,0.104,0.508c0.072,0.267,0.133,0.469,0.183,0.611c0.03,0.1,0.138,0.346,0.466,0.967
	c0.271,0.52,0.496,0.909,0.688,1.196c0.155,0.356,0.335,0.681,0.549,0.987c0.219,0.316,0.406,0.654,0.556,0.996
	c0.059,0.068,0.11,0.177,0.165,0.332c0.087,0.266,0.197,0.469,0.325,0.596c0.113,0.207,0.203,0.322,0.299,0.379
	c0.147,0.089,0.279,0.247,0.393,0.471c0.46,0.543,1.016,1.053,1.635,1.479c0.628,0.431,1.309,0.821,2.03,1.161
	c0.281,0.104,0.58,0.158,0.882,0.158c0.451,0,0.917-0.127,1.393-0.375c0.292-0.1,0.603-0.32,0.951-0.666
	c0.434-0.437,0.5-0.644,0.5-0.729l-0.139-0.973l-0.813-1.486l-0.913,0.129c-0.061,0-0.116,0.012-0.17,0.027l0.841,1.011
	l-0.252,1.106l-0.063,0.037c-0.288,0.17-0.42,0.277-0.479,0.342c-0.104,0.101-0.274,0.147-0.546,0.147
	c-0.113,0-0.244-0.01-0.399-0.026h-0.006c-0.52,0-0.994-0.26-1.395-0.765c-0.391-0.487-0.587-1.005-0.587-1.534v-0.877l0.291-2.91
	l-0.638-1.274c-0.24-0.472-0.5-0.853-0.776-1.13c-0.213-0.213-0.365-0.389-0.464-0.541c-0.101-0.148-0.223-0.346-0.37-0.594
	c-0.161-0.152-0.321-0.349-0.244-0.531c0.031-0.07,0.109-0.162,0.313-0.162c0.294,0,0.557,0.117,0.782,0.341
	c0.542,0.739,1.104,1.397,1.688,1.983l6.019,6.021c0.868,0.866,1.66,1.681,2.354,2.425c0.927,1,1.095,1.264,1.138,1.381l0.086,0.252
	L126.484,137.508z M80.577,92.284l-0.16,0.008c-0.899,0.051-1.673,0.272-2.307,0.672c-0.64,0.406-1.194,0.932-1.641,1.57
	c-0.452,0.643-0.778,1.373-0.965,2.18c-0.193,0.813-0.29,1.666-0.29,2.529v0.141l-0.136,0.027c-0.052,0.01-0.099,0.014-0.142,0.014
	c-0.154,0-0.241-0.065-0.286-0.119c-0.075-0.092-0.097-0.221-0.062-0.389l-0.074-2.588c-0.242-0.17-0.404-0.422-0.477-0.754
	c-0.074-0.311-0.133-0.537-0.181-0.681c-0.173-0.246-0.51-0.632-0.985-1.11c-0.484-0.479-0.838-0.811-1.052-0.976
	c-0.128-0.101-0.479-0.222-1.397-0.222h-0.148c-0.345-0.066-0.543-0.262-0.603-0.576l-0.009-0.034l0.146-0.735
	c-0.042-0.307,0.157-0.642,0.612-1.041c0.395-0.352,0.772-0.527,1.125-0.527c0.049,0,0.096,0.002,0.146,0.008h0.01
	c0.397,0,0.856,0.173,1.347,0.509c0.39,0.267,0.646,0.511,0.765,0.745c0.009-0.025,0.005-0.072-0.023-0.145
	c-0.092-0.223-0.268-0.49-0.523-0.799c-0.229-0.27-0.471-0.523-0.714-0.773l-0.746-0.771l1.762-1.839l1.921-2.006l2.969,4.028
	l-1.681,1.806l-0.006-0.002c-0.147,0.185-0.303,0.34-0.453,0.457v0.094c0.171-0.215,0.402-0.42,0.689-0.614
	c0.459-0.307,0.965-0.5,1.501-0.578c0.148-0.021,0.292-0.033,0.432-0.033c0.373,0,0.721,0.08,1.024,0.234
	c0.444,0.221,0.699,0.739,0.756,1.531c0,0.137-0.002,0.375-0.139,0.45c-0.007,0.026-0.01,0.075-0.01,0.147L80.577,92.284z
	 M79.188,81.877c-0.805-1.092-2.054-1.772-3.405-1.858c-0.099-0.009-0.197-0.009-0.291-0.009c-1.248,0-2.451,0.511-3.322,1.418
	l-3.672,3.841c-0.373,0.385-0.662,0.821-0.872,1.284c-0.077,0.063-0.153,0.128-0.229,0.197c-1.18,1.033-1.752,2.117-2,3.07
	c-0.156,0.055-0.313,0.124-0.468,0.189L75.18,64.021l10.198,25.845c-0.109-0.05-0.213-0.109-0.321-0.154
	c-0.59-2.178-2.015-3.26-2.843-3.728C82.193,85.959,79.188,81.877,79.188,81.877z M130.574,134.926
	c-1.579-2.254-11.68-16.35-17.804-17.152c-0.618-0.271-1.28-0.425-1.965-0.425c-0.38,0-0.745,0.065-1.098,0.159
	c-0.951-3.062-4.235-11.487-12.464-15.488c-0.345-0.205-0.749-0.418-1.232-0.645c-0.278-0.43-1.328-2.037-2.7-3.91L75.18,51.504
	L56.855,97.95c-1.426,1.979-2.424,3.549-2.424,3.549c-7.789,3.209-11.501,10.336-13.026,14.321
	c-0.094,0.202-0.189,0.404-0.285,0.621l-0.084,0.185c0,0-0.599,1.791-0.617,1.84c-0.108-0.059-0.22-0.104-0.33-0.155
	c-5.41-3.985-18.334,14.044-20.136,16.618H4.591c0,0,13.56,0.031,22.993-18.604C38.076,91.411,67.155,18.851,71.087,9.837
	c0.839-1.925,1.507-3.25,2.151-4.087c0.042-0.054,0.083-0.104,0.124-0.153c0.029-0.035,0.06-0.074,0.093-0.109
	c0.387-0.444,0.772-0.711,1.2-0.829h0.003c0.08-0.02,0.168-0.04,0.252-0.049c0.04-0.006,0.077-0.006,0.118-0.011
	c0.048-0.002,0.097-0.009,0.146-0.009h0.005c0.004,0,0.004,0,0.01,0c0.049,0,0.095,0.007,0.144,0.009
	c0.039,0.005,0.079,0.005,0.119,0.011c0.084,0.009,0.17,0.029,0.251,0.049h0.003c0.426,0.118,0.813,0.385,1.201,0.829
	c0.028,0.035,0.06,0.074,0.09,0.109c0.041,0.049,0.084,0.099,0.123,0.153c0.647,0.837,1.313,2.162,2.151,4.087
	c3.935,9.013,33.015,81.572,43.506,106.486c9.432,18.635,22.992,18.604,22.992,18.604H130.574z"/>
<path fill="#9bb3c2" d="M69.713,99.75l-0.336-0.014l-0.501,4.24c-0.153,0.083-0.31,0.25-0.465,0.499
	c-0.179,0.278-0.355,0.606-0.522,0.972c-0.173,0.366-0.354,0.721-0.546,1.055c-0.234,0.406-0.353,0.564-0.412,0.623
	c-0.341,0.342-0.841,0.77-1.491,1.274c-0.627,0.483-1.172,0.731-1.628,0.731l-0.924,0.063v-0.296l-1.073,0.095l-0.045,0.068
	c-0.176,0.256-0.414,0.414-0.737,0.479c-0.456,0.088-0.687,0.578-0.687,1.446c0,0.241,0.091,0.457,0.271,0.638
	c0.123,0.127,0.236,0.326,0.324,0.596l0.024,0.064l0.697,0.34l1.479,0.233l0.084-0.084c1.185-0.021,2.283-0.479,3.273-1.366
	c0.991-0.895,1.672-1.781,2.014-2.607c0.147-0.254,0.345-0.696,0.597-1.348c0.245-0.633,0.469-1.304,0.666-1.994
	c0.198-0.696,0.311-1.388,0.337-2.06c0.027-0.681-0.085-1.194-0.334-1.567L69.713,99.75z M70.277,92.586h0.148
	c0.92,0,1.271,0.121,1.398,0.222c0.213,0.165,0.565,0.496,1.051,0.976c0.477,0.479,0.813,0.864,0.985,1.11
	c0.048,0.144,0.105,0.371,0.181,0.681c0.071,0.332,0.233,0.584,0.477,0.754l0.074,2.588c-0.035,0.168-0.015,0.297,0.062,0.389
	c0.046,0.054,0.132,0.119,0.286,0.119c0.043,0,0.09-0.004,0.142-0.014l0.136-0.027v-0.141c0-0.863,0.097-1.716,0.29-2.529
	c0.187-0.807,0.513-1.539,0.965-2.18c0.445-0.639,1.001-1.164,1.641-1.57c0.634-0.399,1.406-0.621,2.307-0.672l0.16-0.008
	l-0.003-0.16c0-0.072,0.003-0.121,0.01-0.148c0.137-0.074,0.139-0.313,0.139-0.45c-0.057-0.792-0.312-1.312-0.756-1.532
	c-0.305-0.152-0.651-0.232-1.024-0.232c-0.14,0-0.282,0.011-0.432,0.033c-0.536,0.076-1.042,0.271-1.501,0.578
	c-0.287,0.193-0.52,0.398-0.689,0.613v-0.094c0.15-0.116,0.306-0.271,0.453-0.457l0.007,0.002l1.68-1.807l-2.969-4.027l-1.921,2.006
	l-1.762,1.839l0.746,0.772c0.243,0.25,0.484,0.504,0.714,0.773c0.257,0.307,0.433,0.575,0.523,0.799
	c0.028,0.071,0.032,0.119,0.023,0.144c-0.118-0.233-0.375-0.479-0.765-0.745c-0.489-0.336-0.948-0.509-1.347-0.509h-0.01
	c-0.05-0.005-0.097-0.007-0.146-0.007c-0.352,0-0.73,0.176-1.125,0.525c-0.455,0.4-0.654,0.735-0.612,1.041l-0.146,0.736
	l0.009,0.033C69.734,92.325,69.933,92.521,70.277,92.586z M126.665,137.286c-0.043-0.117-0.211-0.382-1.139-1.383
	c-0.693-0.742-1.485-1.558-2.354-2.424l-6.02-6.02c-0.584-0.586-1.146-1.246-1.688-1.984c-0.228-0.225-0.488-0.342-0.782-0.342
	c-0.202,0-0.281,0.093-0.313,0.162c-0.077,0.185,0.083,0.379,0.244,0.533c0.147,0.246,0.271,0.443,0.369,0.592
	c0.1,0.154,0.251,0.33,0.465,0.541c0.276,0.279,0.535,0.66,0.776,1.131l0.637,1.275l-0.291,2.908v0.878
	c0,0.529,0.197,1.048,0.588,1.534c0.399,0.504,0.875,0.766,1.395,0.766h0.006c0.155,0.017,0.286,0.025,0.399,0.025
	c0.271,0,0.441-0.048,0.546-0.148c0.059-0.063,0.188-0.172,0.479-0.342l0.063-0.037l0.252-1.105l-0.841-1.01
	c0.054-0.018,0.109-0.028,0.17-0.028l0.913-0.129l0.813,1.487l0.139,0.972c0,0.085-0.066,0.292-0.5,0.728
	c-0.35,0.346-0.659,0.567-0.951,0.666c-0.476,0.25-0.94,0.377-1.393,0.377c-0.302,0-0.601-0.057-0.882-0.16
	c-0.723-0.338-1.403-0.729-2.031-1.16c-0.618-0.428-1.174-0.938-1.634-1.479c-0.113-0.224-0.244-0.382-0.393-0.471
	c-0.097-0.058-0.186-0.173-0.299-0.38c-0.128-0.127-0.238-0.329-0.325-0.596c-0.056-0.154-0.106-0.264-0.165-0.332
	c-0.148-0.34-0.337-0.68-0.557-0.994c-0.213-0.31-0.393-0.631-0.548-0.988c-0.191-0.287-0.417-0.678-0.688-1.196
	c-0.328-0.62-0.436-0.868-0.466-0.967c-0.051-0.144-0.109-0.347-0.183-0.612c-0.091-0.33-0.104-0.459-0.104-0.508v-0.07l-0.052-0.05
	c-0.241-0.239-0.384-0.334-0.488-0.364c-0.007-0.078-0.01-0.248,0.023-0.604l0.008-0.077l-0.304-0.302l-0.071-1.362l-0.013-0.028
	c-0.142-0.326-0.341-0.84-0.622-1.568c-0.269-0.713-0.479-1.24-0.613-1.546c-0.198-1.093-0.649-2.248-1.347-3.444
	c-0.194-0.285-0.441-0.703-0.765-1.271c-0.323-0.572-0.672-1.143-1.034-1.699c-0.371-0.566-0.753-1.1-1.147-1.592
	c-0.407-0.51-0.731-0.836-0.966-0.969c-0.291-0.287-0.628-0.682-1.017-1.16c-0.397-0.498-0.826-0.924-1.305-1.293
	c-0.191-0.097-0.421-0.228-0.681-0.396c-0.256-0.16-0.482-0.34-0.695-0.547c-0.291-0.193-0.522-0.351-0.693-0.474
	c-0.175-0.127-0.434-0.266-0.771-0.41c-0.225-0.209-0.727-0.489-1.527-0.854c-0.809-0.366-1.367-0.603-1.671-0.706
	c-0.299-0.099-0.657-0.173-1.063-0.227c-0.2-0.025-0.397-0.038-0.588-0.038c-0.191,0-0.377,0.013-0.53,0.038
	c-0.411,0-0.758,0.054-1.017,0.16c-0.225,0.086-0.472,0.134-0.744,0.134h-0.142l-0.131,0.668l0.162,0.028
	c0.444,0.092,0.905,0.465,1.366,1.106c0.468,0.656,0.702,1.214,0.704,1.683l0.074,0.791c0,0.258-0.058,0.312-0.05,0.315
	c-0.281,0.052-0.289,0.446-0.254,0.808l-1.333,1.6c-0.06-0.098-0.188-0.102-0.402-0.102c-0.084,0-0.289,0.034-0.345,0.318
	c-0.017,0.064-0.101,0.143-0.218,0.204c-0.174,0.058-0.331,0.157-0.471,0.299c-0.096,0.093-0.197,0.16-0.311,0.205
	c-0.286-0.021-0.554-0.028-0.807-0.028c-0.391,0-0.752,0.022-1.067,0.069c-0.109,0.017-0.226,0.022-0.342,0.022
	c-0.394,0-0.832-0.094-1.291-0.27c-0.345-0.146-0.832-0.365-1.464-0.66c-0.624-0.285-1.11-0.552-1.42-0.771
	c-0.727-0.723-1.387-1.463-1.97-2.188c-0.575-0.719-1.062-1.567-1.451-2.538l-0.734-1.471c-0.185-0.37-0.299-0.962-0.349-1.771
	c-0.05-0.547-0.15-1.199-0.295-1.929c-0.146-0.724-0.217-1.28-0.217-1.655c0-1.043,0.301-2.192,0.898-3.412
	c0.558-1.135,1.243-1.717,2.098-1.773l0.021,0.098c-0.312,0.152-0.529,0.344-0.651,0.563c-0.145,0.25-0.162,0.664-0.067,1.269
	l-0.432,0.861l-0.07,1.113l-0.078,0.406l0.07,1.326c-0.143,0.17-0.217,0.362-0.215,0.592l0.225,2.465l0.287,0.433v0.442l0.033,0.043
	c0.231,0.33,0.459,0.795,0.677,1.394c0.224,0.617,0.483,1.181,0.78,1.668c0.063,0.138,0.256,0.419,1.129,1.292
	c0.875,0.875,1.156,1.066,1.275,1.126c0.558,0.351,1.039,0.642,1.478,0.884c0.391,0.217,0.894,0.328,1.491,0.328
	c0.116,0,0.24-0.007,0.353-0.015c0.514,0,0.88-0.037,1.118-0.116c0.234-0.078,0.501-0.217,0.773-0.404
	c0.184-0.063,0.394-0.27,0.668-0.646c0.267-0.375,0.396-0.672,0.399-0.909c-0.005-0.438-0.174-0.806-0.502-1.08
	c-0.28-0.233-0.524-0.452-0.726-0.651l-0.093-0.098l-0.117,0.077c-0.293,0.192-0.634,0.386-1.01,0.578
	c-0.367,0.18-0.787,0.272-1.246,0.272h-0.296c-0.265,0-0.588-0.093-0.95-0.277c-0.382-0.188-0.784-0.426-1.231-0.721
	c-0.427-0.287-0.812-0.6-1.146-0.934c-0.328-0.328-0.537-0.587-0.633-0.771c-0.396-0.692-0.815-1.455-1.242-2.273
	c-0.408-0.755-0.599-1.613-0.578-2.577c0.039,0.121,0.072,0.214,0.109,0.271v0.109l0.217,0.213l-0.067,0.76
	c0.052,0.473,0.337,1.065,0.876,1.806c0.525,0.733,0.938,1.19,1.242,1.39c0.533,0.439,0.996,0.832,1.39,1.17
	c0.374,0.334,1.023,0.494,1.981,0.494c0.131,0,0.27-0.002,0.38-0.013l0.56,0.073c0.367-0.051,0.828-0.235,1.415-0.568
	c0.587-0.332,0.971-0.593,1.175-0.798c0.342-0.341,0.643-0.661,0.895-0.968c0.264-0.315,0.446-0.786,0.548-1.387
	c0.104-0.42,0.066-0.953-0.111-1.592c-0.182-0.645-0.425-1.113-0.72-1.404c-0.213-0.315-0.563-0.617-1.045-0.896
	c-0.488-0.284-0.947-0.427-1.338-0.427h-0.01c-0.06-0.008-0.121-0.012-0.184-0.012c-0.328,0-0.666,0.125-1.004,0.375
	c-0.381,0.278-0.704,0.599-0.953,0.953c-0.267,0.371-0.401,0.701-0.398,0.979c0,0.139,0.044,0.259,0.133,0.346
	c0.131,0.128,0.333,0.191,0.622,0.191h0.068l0.2-0.199l0.17,0.052c0.523,0,0.845,0.147,0.984,0.452
	c0.156,0.334,0.176,0.706,0.066,1.133c-0.117,0.445-0.318,0.854-0.598,1.23c-0.259,0.345-0.511,0.518-0.746,0.518h-0.647l0.05-0.152
	l-0.906-0.347c0.108-0.138,0.234-0.245,0.375-0.325c0.281-0.152,0.414-0.588,0.417-1.357c-0.003-0.174-0.003-0.344-0.104-0.405
	c-0.009-0.034-0.024-0.104-0.047-0.212l-0.032-0.152l-0.152,0.019c-0.139,0.015-0.25,0.022-0.338,0.022
	c-0.018,0-0.035,0-0.047-0.002c-0.006-0.046-0.021-0.08-0.035-0.105c-0.063-0.107-0.201-0.133-0.279-0.133
	c-0.014,0-0.024,0-0.036,0.002l-0.619-0.207l-0.146,0.738l-0.316-0.099c-0.609,0-1.036-0.396-1.309-1.205
	c-0.264-0.799-0.391-1.584-0.362-2.339l0.739,0.054c0.185,0.063,0.371,0.095,0.559,0.095c0.454,0,0.913-0.193,1.361-0.564
	c0.634-0.527,0.94-1.001,0.94-1.439l0.074-1.26c-0.002-0.836-0.409-1.54-1.212-2.083c-0.783-0.534-1.595-0.8-2.406-0.8h-0.068
	l-0.047,0.049c-0.084,0.083-0.218,0.167-0.391,0.256c-0.322,0.139-0.671,0.209-1.037,0.209h-0.086l-0.047,0.071
	c-0.22,0.304-0.433,0.479-0.633,0.519c-0.296,0.058-0.597,0.348-0.91,0.875c-0.249,0.346-0.451,0.647-0.595,0.89
	c-0.151,0.251-0.346,0.546-0.58,0.874l-0.036,0.047l0.008,0.061c0.043,0.59-0.043,1.018-0.254,1.273
	c-0.269,0.318-0.431,0.723-0.482,1.189c-0.044,0.402-0.175,0.717-0.393,0.928c-0.095,0.095-0.247,0.226-0.459,0.391
	c-0.123,0.094-0.195,0.137-0.228,0.15l-0.028-0.024l-0.286,0.097c-0.854-0.055-1.374-0.332-1.585-0.849
	c-0.247-0.587-0.563-1.226-0.943-1.892v-0.592l-0.026-0.045c-0.189-0.281-0.384-0.641-0.574-1.074
	c-0.203-0.461-0.438-0.82-0.693-1.078l-0.848-0.844c-0.33-0.336-0.663-0.559-0.955-0.656c-0.619-0.32-1.212-0.484-1.765-0.484
	c-0.41,0-0.805,0.09-1.178,0.264c-0.857,0.404-1.521,0.941-1.973,1.599l-0.031,0.044v2.322l0.049,0.049
	c0.229,0.23,0.428,0.521,0.59,0.869c0.197,0.431,0.585,0.646,1.146,0.646h0.174l0.074,0.221l0.731,0.002
	c0.047,0.115,0.103,0.244,0.171,0.381c-0.005,0.068-0.021,0.179-0.066,0.363c-0.049,0.194-0.103,0.422-0.142,0.648
	c-0.104,0.299-0.177,0.632-0.222,0.953c-0.018,0.054-0.114,0.221-0.612,0.662c-0.388,0.334-0.622,0.406-0.748,0.406
	c-0.02,0-0.041-0.002-0.061-0.004l-0.038-0.008l-0.714,0.178l-0.031,0.084c-0.037,0.112-0.096,0.191-0.18,0.24
	c-0.124,0.072-0.269,0.229-0.269,0.549c0,0.305,0.146,0.619,0.447,0.953l-0.146,0.146l-0.947,0.267
	c-0.598-0.14-1.121-0.34-1.561-0.594c-0.413-0.24-0.615-0.659-0.611-1.302l-0.066-0.701l1.178-0.68l0.42,0.75l0.962-0.578v-0.1
	c0-0.088,0-0.246-0.074-0.334l0.006-0.006l-0.089-1.119l-0.124-0.025c-0.204-0.041-0.406-0.18-0.603-0.418
	c-0.245-0.301-0.566-0.483-0.973-0.539c-1.041,0-1.723,0.201-2.07,0.609c-0.325,0.373-0.664,0.836-1.008,1.379l-0.016,0.03
	l-0.156,1.356c-0.052,0.377,0.046,0.884,0.304,1.55c0.231,0.606,0.467,0.958,0.724,1.087v0.059c-0.063,0.024-0.11,0.055-0.144,0.094
	c-0.029,0-0.068,0.002-0.132,0.002c-0.093,0-0.143-0.012-0.162-0.012c-0.005,0-0.01,0.004-0.01,0.004
	c-0.058-0.143-0.247-0.223-0.705-0.287h-0.313l-0.291-1.062l-0.381,0.634l-0.563,0.079l-0.015,0.13
	c-0.054,0.455-0.252,0.512-0.424,0.512c-0.359,0-0.658,0.025-0.943,0.086c-0.392,0.166-0.623,0.352-0.714,0.566
	c-0.019,0.041-0.081,0.063-0.181,0.063c-0.087,0-0.194-0.016-0.322-0.047l-0.084-0.022l-1.113,0.968
	c-0.055-0.004-0.104-0.004-0.158-0.004c-0.488,0-0.933,0.147-1.318,0.444c-0.414,0.315-0.862,0.621-1.321,0.897
	c-0.365,0.158-0.769,0.459-1.187,0.883c-0.44,0.224-0.682,0.416-0.744,0.613c-0.022,0.063-0.105,0.197-0.475,0.449l-0.844,0.844
	c-0.418,0.42-0.83,0.881-1.22,1.369c-0.396,0.492-0.764,0.959-1.105,1.398c-0.347,0.443-0.593,0.794-0.749,1.049
	c-0.568,1.048-1.08,2.001-1.504,2.83c-0.418,0.803-0.861,1.729-1.367,2.854c-0.201,0.586-0.383,1.137-0.551,1.646
	c-0.173,0.514-0.381,1.04-0.633,1.613c-0.05,0.43-0.183,1-0.399,1.695c-0.2,0.645-0.469,1.02-0.794,1.098l-0.158,0.039l0.029,0.154
	c0.035,0.153,0.076,0.375,0.219,0.432v0.055c0,0.369-0.096,0.818-0.281,1.334c-0.196,0.531-0.426,1.082-0.692,1.639
	c-0.261,0.545-0.53,1.059-0.799,1.529c-0.271,0.463-0.505,0.842-0.696,1.132c-0.331,0.521-0.628,0.937-0.866,1.229
	c-0.244,0.291-0.561,0.632-0.945,1.016c-0.524,0.527-0.924,0.875-1.182,1.042l-1.173,0.749l-2.542,0.141
	c-0.324-0.229-0.583-0.396-0.781-0.49c-0.187-0.098-0.498-0.313-0.928-0.646l-0.021-0.018l-0.026-0.012
	c-0.039-0.008-0.181-0.094-0.457-0.615c-0.215-0.404-0.349-0.68-0.382-0.766v-0.589c-0.003-0.446,0.163-0.858,0.509-1.243
	c0.325-0.375,0.623-0.565,0.866-0.565h0.548l-0.353,0.262v1.376l0.117,0.04c0.236,0.078,0.305,0.14,0.32,0.14
	c0.005,0,0.005,0,0.005,0c0,0.254,0.331,0.334,0.7,0.381l0.612-0.074c0.06,0.014,0.118,0.019,0.179,0.019
	c0.595,0,1.065-0.513,1.405-1.534c0.105-0.429,0.066-0.892-0.112-1.389c-0.205-0.553-0.247-0.813-0.252-0.963l-0.068-0.334
	c-0.004-0.459,0.152-0.988,0.459-1.576c0.308-0.591,0.607-1.035,0.896-1.328c0.49-0.586,0.847-1.017,1.063-1.283
	c0.242-0.295,0.385-0.545,0.439-0.764c0.026-0.105,0.01-0.193-0.039-0.257c-0.035-0.045-0.1-0.099-0.219-0.099
	c-0.112,0-0.271,0.054-0.474,0.152c-0.321,0.107-0.679,0.359-1.094,0.776c-0.402,0.401-0.813,0.838-1.217,1.292
	c-0.414,0.464-0.822,0.918-1.209,1.355c-0.389,0.436-0.708,0.78-0.953,1.022c-0.231,0.235-0.577,0.532-1.046,0.905
	c-0.475,0.373-0.866,0.766-1.152,1.146c-0.161,0.162-0.323,0.354-0.491,0.566c-0.174,0.224-0.326,0.396-0.438,0.516
	c-0.297,0.2-0.529,0.377-0.688,0.532l-1.355,1.36c-0.478,0.478-0.959,0.985-1.438,1.513c-0.172,0.188-0.37,0.409-0.58,0.644
	c-0.383,0.424-0.822,0.916-1.33,1.484l-0.207,0.236l0.312,0.043c0.063,0.008,0.123,0.013,0.183,0.013
	c0.318,0,0.567-0.136,0.719-0.388c0.137-0.229,0.299-0.441,0.485-0.625c0.062-0.062,0.193-0.168,0.459-0.342
	c0.025-0.014,0.04-0.027,0.067-0.045c0.283-0.184,0.496-0.346,0.648-0.498c0.437-0.434,0.836-0.787,1.193-1.045
	c0.336-0.252,0.761-0.539,1.262-0.854c0.121,0.082,0.289,0.261,0.517,0.62c0.252,0.402,0.538,0.793,0.858,1.16
	c0.318,0.369,0.671,0.721,1.047,1.043c0.386,0.338,0.838,0.514,1.306,0.514h0.032c0.123,0.037,0.212,0.087,0.267,0.141
	c0.105,0.104,0.271,0.158,0.498,0.158l0.711,0.07c0.591-0.098,1.378-0.307,2.34-0.631c0.904-0.301,1.477-0.713,1.698-1.227
	c0.119,0.049,0.159,0.08,0.169,0.08c0.002,0,0.002,0,0.004,0c0,0.104,0.045,0.279,0.336,0.376l0.032,0.013l0.037-0.002
	c0.593-0.058,1.033-0.357,1.308-0.899c0.304-0.611,0.479-0.644,0.51-0.644h0.117l1.748-4.519l1.194,1.794l0.774,0.075
	c0.162,0.521,0.44,0.878,0.829,1.054c0.313,0.148,0.491,0.32,0.53,0.51l0.032,0.164l0.514-0.104l0.938-0.075
	c0.106,0,0.305,0,0.402-0.101c0.017,0.006,0.101,0.033,0.101,0.033l0.584-0.115l-0.042-0.174c-0.094-0.359-0.191-0.598-0.399-0.598
	c-0.044,0-0.111,0.016-0.143,0.063c0,0-0.113-0.01-0.455-0.349c-0.183-0.184-0.367-0.509-0.554-0.979
	c-0.143-0.33-0.274-0.752-0.395-1.256c-0.126-0.521-0.308-0.903-0.551-1.172l-0.226-3.578c-0.034-0.096-0.098-0.287-0.249-0.326
	c-0.003-0.004-0.003-0.012-0.009-0.016l0.107-0.109l0.748-4.055l-0.063-0.776h0.282v-0.169c0-0.372,0.043-0.723,0.141-1.055
	c0.078-0.287,0.236-0.469,0.478-0.549l0.114-0.035v-0.813c0.244-0.443,0.444-0.832,0.606-1.184c0.169-0.359,0.4-0.787,0.702-1.291
	c0.137-0.326,0.389-0.744,0.752-1.248c0.21-0.297,0.376-0.483,0.512-0.601c-0.035,0.093-0.082,0.212-0.145,0.358
	c-0.172,0.419-0.367,0.883-0.587,1.394c-0.221,0.517-0.44,1.054-0.661,1.621c-0.228,0.577-0.385,1.003-0.483,1.313
	c-0.249,1.229-0.396,2.195-0.444,2.884c-0.051,0.694-0.1,1.758-0.147,3.155c-0.05,0.744,0.024,1.721,0.222,2.898
	c0.193,1.156,0.459,2.023,0.8,2.58l-0.073,0.51l0.024,0.051c0.25,0.444,0.466,0.908,0.654,1.379c0.2,0.492,0.422,0.97,0.678,1.431
	l0.049,0.06l-0.446,0.092l-0.479,0.416h1.309l0.453,0.607c0.293,0.391,0.622,0.766,0.975,1.115c0.256,0.259,0.565,0.549,0.924,0.854
	c0.376,0.325,0.793,0.617,1.248,0.868c0.596,0.302,1.046,0.515,1.377,0.652c0.078,0.063,0.182,0.099,0.314,0.099
	c0.045,0,0.168,0.02,0.551,0.145c0.248,0.052,0.547,0.099,0.932,0.15l2.17-0.227l0.035-0.023c0.576-0.384,0.979-0.643,1.201-0.76
	c0.133-0.078,0.295-0.232,0.483-0.452c0.159-0.188,0.338-0.419,0.542-0.716c0.53-0.531,0.729-1.09,0.592-1.664
	c-0.11-0.475-0.033-0.925,0.242-1.376l0.051-0.088l-0.051-0.084c-0.408-0.718-0.873-1.175-1.371-1.363
	c-0.479-0.172-1.106-0.306-1.911-0.409l-0.153-0.019l-0.078,0.386h-0.438l-0.029,0.135c-0.037,0.205-0.209,0.434-0.489,0.676
	c-0.37,0.311-0.521,0.621-0.466,0.896c0,0.534,0.152,0.956,0.451,1.259l0.826,0.826l1.107-0.084l0.696-0.951v0.127
	c0,0.432-0.37,0.933-1.105,1.48c-0.944,0.706-1.396,0.893-1.578,0.923l-0.715-0.03l-1.151-0.045l-0.029,0.008
	c-0.016,0.006-0.038,0.008-0.061,0.008c-0.076,0-0.229-0.029-0.504-0.178l-0.956-0.514c-0.337-0.182-0.62-0.352-0.87-0.511
	c-0.238-0.15-0.307-0.233-0.326-0.233c0,0-0.002,0-0.002,0.006c0.029-0.121,0.053-0.207,0.072-0.283
	c0.052-0.196,0.071-0.256,0.065-0.256l0.077-0.084l-0.042-0.104c-0.048-0.11-0.062-0.132-0.85-0.132H49.52
	c-0.018-0.03-0.035-0.055-0.053-0.084c-0.361-0.614-0.727-1.137-1.09-1.551c-0.328-0.365-0.565-0.929-0.713-1.67l2.332,0.979
	l-0.2-0.599l1.047-0.129l0.039-0.063c0.302-0.421,0.454-0.506,0.503-0.523c0.154-0.053,0.287-0.104,0.391-0.158
	c0.214-0.104,0.24-0.387,0.242-0.588c-0.002-0.248,0-1.676,0-1.676l-0.133-0.031c-0.832-0.184-1.403-0.516-1.693-0.987
	c-0.315-0.509-0.7-1.093-1.146-1.739c-0.278-0.37-0.544-1.066-0.775-2.064c-0.241-1.002-0.314-1.795-0.222-2.356l0.035-0.194h-0.319
	l0.069-2.254c-0.002-1.535,0.313-3.068,0.939-4.563c0.622-1.485,1.351-2.602,2.167-3.32c0.047-0.05,0.246-0.271,0.596-0.67
	c0.333-0.387,0.556-0.627,0.648-0.729c0.1-0.092,0.352-0.322,0.764-0.686c0.521-0.459,0.718-0.57,0.815-0.605
	c0.43-0.238,1.052-0.549,1.896-0.949c0.613-0.288,1.149-0.483,1.6-0.58l-0.74,0.965l0.004,0.064
	c0.045,0.617,0.038,1.109-0.032,1.459c-0.074,0.373-0.124,0.724-0.148,1.049c-0.027,0.334,0.012,0.687,0.115,1.049
	c0.102,0.357,0.328,0.816,0.682,1.363c0.562,0.869,1.086,1.418,1.607,1.677c0.482,0.241,1.041,0.585,1.668,1.015l0.024,0.018
	l1.272,0.317l0.39-0.231l1.842-0.078l-0.02-0.092l2.176-0.58l0.438-0.438c0.215-0.214,0.481-0.426,0.782-0.639
	c0.32-0.223,0.607-0.436,0.854-0.633c0.237-0.188,0.402-0.328,0.508-0.43c0.366-0.166,0.76-0.541,1.21-1.145
	c0.444-0.585,0.771-1.088,0.979-1.5c0.176-0.418,0.28-0.563,0.325-0.607c0.074-0.072,0.199-0.227,0.483-0.8
	c0.045-0.133,0.153-0.36,0.32-0.67c0.168-0.321,0.306-0.578,0.411-0.785c0.146-0.351,0.251-0.685,0.305-0.993
	c0.039-0.261,0.146-0.468,0.352-0.686c0.083-0.176,0.228-0.338,0.431-0.493c0.122-0.097,0.239-0.22,0.344-0.371l-0.646,3.097
	l-0.579,2.176c-0.15,0.346-0.358,0.848-0.625,1.509c-0.271,0.657-0.479,1.161-0.606,1.473c-0.445,0.642-0.721,1.097-0.824,1.354
	c-0.063,0.152-0.287,0.482-0.993,1.193c-0.459,0.459-0.835,0.858-1.146,1.219c-0.305,0.351-0.701,0.675-1.14,0.941
	c-0.153,0.051-0.284,0.105-0.386,0.153c-0.077,0.036-0.149,0.056-0.22,0.056h-0.039l-0.035,0.02
	c-0.235,0.117-0.378,0.238-0.44,0.367c-0.043,0.082-0.105,0.164-0.166,0.232c-0.189,0.12-0.386,0.184-0.605,0.184
	c-0.086,0-0.169-0.01-0.258-0.024c-0.077-0.015-0.15-0.024-0.219-0.024c-0.213,0-0.502,0.078-0.692,0.422h-0.787
	c-0.138,0.012-0.27,0.02-0.39,0.02c-0.394,0-0.685-0.059-0.865-0.174c-0.243-0.155-0.456-0.418-0.639-0.776l-0.104-0.212
	l-0.162,0.164c-0.014,0.018-0.085,0.07-0.381,0.07c-0.057,0-0.123-0.002-0.188-0.004l-0.064-0.006c-0.183,0-0.336,0.057-0.449,0.172
	c-0.147,0.148-0.217,0.375-0.217,0.696v0.417c-0.057,0.396,0.123,0.803,0.523,1.207c0.395,0.391,0.739,0.631,1.065,0.739
	c0.601,0.172,0.924,0.388,0.941,0.623c0.021,0.257,0.188,0.56,0.835,0.616c-0.096,0.145-0.264,0.293-0.498,0.438
	c-0.375,0.233-0.805,0.472-1.306,0.728c-0.491,0.242-0.971,0.449-1.417,0.617c-0.552,0.201-0.809,0.246-0.932,0.246
	c-0.395,0-0.897,0.01-1.515,0.035c-0.118,0.006-0.233,0.01-0.346,0.01c-0.438,0-0.811-0.039-1.097-0.107
	c-0.068-0.028-0.271-0.139-0.824-0.633c-0.4-0.354-0.604-0.707-0.603-1.049c-0.003-0.131,0.044-0.248,0.139-0.358l1.167-0.229
	l0.013-0.125c0.05-0.442,0.099-0.562,0.079-0.562c0.137-0.047,0.223-0.207,0.286-0.526l0.011-0.041l-0.08-0.232
	c-0.121-0.82-0.532-0.992-0.858-0.992c-0.097,0-0.198,0.014-0.267,0.04c-0.336,0-0.707,0.181-1.135,0.553
	c-0.429,0.374-0.647,0.736-0.647,1.071l-0.069,0.98c0.05,0.479,0.287,0.953,0.701,1.416c0.396,0.45,0.754,0.781,1.035,0.963
	c0.219,0.219,0.708,0.438,1.502,0.666c0.76,0.223,1.324,0.355,1.677,0.408l0.02,0.002l0.846-0.078
	c0.238-0.047,0.443-0.08,0.613-0.105c0.163-0.023,0.488-0.035,0.968-0.035h0.05l0.045-0.027c0.281-0.19,0.631-0.379,1.074-0.576
	c0.443-0.195,0.891-0.42,1.329-0.664c0.839-0.447,1.516-0.871,1.999-1.258c0.307-0.207,0.637-0.481,0.982-0.828
	c0.325-0.326,0.65-0.56,0.991-0.705c0.263-0.157,0.607-0.479,1.032-0.953c0.409-0.459,0.69-0.764,0.866-0.953
	c0.096-0.188,0.266-0.482,0.506-0.866c0.241-0.392,0.513-0.808,0.805-1.245c0.293-0.439,0.559-0.877,0.779-1.299
	c0.223-0.415,0.38-0.723,0.494-0.958c0.14-0.616,0.479-1.444,1.012-2.455c0.553-1.06,0.869-1.915,0.967-2.599l0.666-2.18
	l-0.073-3.769l0.549,0.039v0.42l-0.224,3.578l-0.799,5.179l-0.297,0.459l-0.71,2.7c-0.27,0.123-0.489,0.504-0.682,1.187
	c-0.192,0.666-0.382,1.144-0.573,1.434c-0.246,0.439-0.479,0.84-0.695,1.207c-0.223,0.363-0.454,0.773-0.672,1.179l-2.059,2.056
	c-0.054,0.059-0.189,0.156-0.498,0.293c-0.267,0.123-0.543,0.23-0.828,0.326c-0.219,0.072-0.428,0.109-0.627,0.109
	c-0.051,0-0.101-0.005-0.148-0.01c-0.129-0.01-0.307-0.059-0.404-0.359l-0.042-0.13L64.574,125l-0.408,1.225l-0.242,1.214
	l0.102,0.062c0.394,0.24,0.73,0.355,1.025,0.355c0.101,0,0.197-0.016,0.288-0.045c0.101-0.031,0.204-0.051,0.308-0.051
	c0.166,0,0.345,0.039,0.538,0.125c0.092,0.031,0.107,0.068,0.107,0.135c0,0.132-0.014,0.259-0.033,0.37
	c-0.034,0.174,0.018,0.343,0.159,0.481c0.099,0.096,0.252,0.162,0.471,0.187c-0.07,0.139-0.188,0.276-0.352,0.409
	c-0.264,0.215-0.55,0.404-0.855,0.57c-0.305,0.166-0.617,0.311-0.933,0.432c-0.303,0.113-0.538,0.17-0.764,0.18l-0.401,0.135
	c-0.676-0.111-1.142-0.318-1.383-0.615h0.514l0.684-0.685v-0.366c-0.002-0.213-0.052-0.49-0.149-0.851
	c-0.084-0.289-0.331-0.632-1.071-0.632h-0.015l-1.221,0.305l-0.033,0.033c-0.142,0.143-0.179,0.384-0.119,0.734
	c0.045,0.287,0.069,0.523,0.071,0.728c0.053,0.468,0.136,0.782,0.244,0.95c0.104,0.152,0.198,0.275,0.281,0.355l0.255,0.262
	c0.052,0.051,0.124,0.164,0.175,0.426l0.029,0.134h0.139c0.453,0,0.788,0.058,0.982,0.162c0.237,0.135,0.598,0.202,1.055,0.202
	h0.049c0.103,0.021,0.209,0.035,0.328,0.035c0.394,0,0.873-0.135,1.472-0.414c0.668-0.313,1.086-0.608,1.264-0.898
	c0.064,0.016,0.129,0.02,0.183,0.02c0.292,0,0.546-0.168,0.755-0.506c0.237-0.377,0.479-0.689,0.712-0.922l0.879-0.884
	c0.307-0.302,0.563-0.661,0.756-1.045c0.244-0.347,0.464-0.664,0.664-0.96c0.194-0.297,0.396-0.648,0.59-1.041
	c0.149-0.247,0.341-0.663,0.563-1.229c0.287-0.736,0.404-0.898,0.439-0.938l0.029-0.027l0.823-2.619l0.14-0.566l0.846-2.232
	l-0.07-0.068l0.191-0.448l-0.004-0.04c-0.045-0.512,0.012-0.967,0.175-1.354c0.081-0.201,0.146-0.408,0.189-0.627
	c0,0.01,0.006,0.017,0.009,0.026c0.002,0.009,0.02,0.083-0.043,0.397l-1.388,7.822c-0.236,0.62-0.446,1.125-0.616,1.493
	c-0.177,0.37-0.38,0.864-0.632,1.524c-0.286,0.857-0.727,1.839-1.313,2.904c-0.243,0.439-0.5,0.893-0.767,1.355
	c-0.264,0.449-0.587,0.873-0.987,1.275c-0.188,0.279-0.582,0.674-1.178,1.177c-0.843,0.708-0.999,0.934-1.044,1.067l-0.067,0.203
	l0.216,0.014c0.604,0.047,1.065,0.187,1.382,0.41c0.342,0.246,0.705,0.512,1.093,0.799c0.864,0.746,0.941,1.049,0.932,1.143
	c-0.031,0.307,0.15,0.746,0.549,1.352v0.85l0.074,0.641c0,0.086-0.063,0.305-0.473,0.77c-0.076,0.088-0.136,0.145-0.196,0.205
	c-0.281,0.275-0.429,0.324-0.487,0.324H69.53l0.087-0.433v-0.005c0.128-0.051,0.257-0.123,0.39-0.207
	c0.188-0.13,0.291-0.327,0.291-0.557l0.074-0.561c-0.06-0.404-0.302-0.682-0.705-0.8c-0.336-0.095-0.602-0.144-0.851-0.144h-0.06
	c-0.335,0.107-0.577,0.297-0.716,0.553c-0.123,0.217-0.281,0.469-0.475,0.761l-0.057,0.089l0.052,0.088
	c0.067,0.11,0.126,0.274,0.176,0.484c0.055,0.217,0.097,0.486,0.136,0.811c0.073,0.66,0.475,1.012,1.165,1.012
	c0.095,0,0.197-0.008,0.32-0.025l1.377-0.307l0.352-0.409l0.681-0.779l-0.009-0.743c0.039-0.119,0.126-0.25,0.252-0.373l0.12-0.115
	l-0.12-0.123c-0.218-0.215-0.358-0.639-0.425-1.258c-0.079-0.68-0.271-1.281-0.58-1.8c-0.207-0.306-0.576-0.7-1.091-1.17
	c-0.486-0.437-0.911-0.713-1.294-0.843c0.048-0.299,0.27-0.605,0.662-0.92c0.472-0.381,0.86-0.672,1.167-0.879
	c0.388-0.288,0.653-0.483,0.806-0.58c0.112-0.08,0.229-0.12,0.344-0.12h0.586c0.199,0,0.479-0.03,0.842-0.095
	c-0.133,0.316-0.221,0.352-0.231,0.355c-0.154,0.049-0.318,0.112-0.491,0.188c-0.219,0.093-0.388,0.314-0.495,0.652
	c-0.108,0.313-0.156,0.906-0.156,1.814v0.04l0.019,0.034c0.199,0.402,0.467,0.801,0.791,1.173c0.313,0.36,0.591,0.758,0.83,1.187
	c0.294,0.494,0.524,0.875,0.699,1.145c0.104,0.166,0.229,0.584,0.229,1.631c0,0.012-0.018,0.134-0.303,0.611
	c-0.316,0.529-0.355,0.691-0.355,0.791v0.052l0.721,1.01l-0.063,0.325l0.005,0.029c0.044,0.338,0.165,0.656,0.346,0.951
	c-0.04,0.108-0.087,0.205-0.139,0.293c-0.091,0.149-0.136,0.336-0.136,0.568v0.068l0.053,0.047c0.004,0.009,0.041,0.052,0.094,0.203
	c0.002,0.104,0.02,0.195,0.048,0.275c0.033,0.1,0.08,0.188,0.148,0.256l0.237,0.238l0.015-0.091l0.487-3.558l-0.011-0.008
	c0.018-0.021,0.047-0.056,0.097-0.106l0.342-0.345v-0.067c0-0.127-0.002-0.409-0.187-0.454c-0.008-0.018-0.021-0.035-0.032-0.059
	c0-0.422-0.039-0.736-0.119-0.976c-0.068-0.202-0.104-0.368-0.104-0.491c0-0.135,0.027-0.295,0.07-0.476
	c0.045-0.177,0.16-0.407,0.344-0.681l0.027-0.045V138c-0.002-0.455,0.09-0.82,0.268-1.08c0.186-0.283,0.4-0.545,0.64-0.785
	c0.247-0.243,0.473-0.523,0.682-0.83c0.213-0.324,0.321-0.748,0.321-1.268l-0.003-0.777c-0.109-0.428-0.365-0.793-0.762-1.084
	c-0.303-0.217-0.521-0.496-0.657-0.836c0.07-0.035,0.112-0.076,0.136-0.135c0.002-0.002,0.01-0.008,0.018-0.015
	c0.074,0,0.123,0.007,0.152,0.013c0.061,0.117,0.234,0.176,0.34,0.209c0.773,0.102,1.266,0.182,1.476,0.25
	c0.131,0.045,0.398,0.207,0.926,0.729c0.306,0.307,0.666,0.564,1.068,0.768c0.303,0.15,0.546,0.374,0.721,0.649
	c-0.318,0.157-0.693,0.391-1.144,0.713c-0.519,0.366-0.909,0.685-1.159,0.937c-0.449,0.45-0.779,0.857-0.984,1.213
	c-0.193,0.336-0.461,0.776-0.803,1.315l-0.031,0.052l0.389,2.572l0.088,0.037c0.29,0.127,0.461,0.314,0.524,0.581
	c0.047,0.202,0.192,0.37,0.458,0.519c0.256,0.147,0.623,0.275,1.111,0.387c0.184,0.021,0.344,0.031,0.495,0.031
	c0.484,0,0.836-0.127,1.054-0.391c0.248-0.299,0.526-0.701,0.824-1.191l0.02-0.037l0.002-0.039c0.012-0.168,0-0.309-0.002-0.463
	c0-0.455-0.04-0.873-0.153-1.221c-0.171-0.51-0.689-0.771-1.529-0.771h-0.005c-0.063-0.004-0.124-0.006-0.179-0.006
	c-0.425,0-0.761,0.172-1.001,0.518c-0.261,0.355-0.439,0.693-0.542,0.998l-0.032,0.102l0.845,0.84l0.416,0.084
	c0.033,0.006,0.059,0.016,0.086,0.024c0.078,0.022,0.144,0.049,0.18,0.087c-0.076,0.1-0.143,0.215-0.202,0.354
	c-0.05,0.109-0.12,0.158-0.264,0.158l-0.679,0.059c-0.089-0.252-0.188-0.424-0.289-0.523l-0.33-0.328
	c-0.104-0.107-0.188-0.256-0.252-0.451c-0.066-0.205-0.103-0.547-0.104-0.986l0.079-0.549l-0.122-0.469
	c0.31-0.112,0.405-0.194,0.41-0.324c0.002-0.008,0.018-0.067,0.138-0.317c0.124-0.376,0.182-0.446,0.182-0.446
	c0.062-0.063,0.114-0.164,0.176-0.322c0.236-0.248,0.414-0.471,0.518-0.676c0.084-0.168,0.263-0.347,0.554-0.543
	c0.134-0.133,0.362-0.27,0.684-0.408c0.318-0.137,0.57-0.205,0.775-0.209c0.309-0.062,0.569-0.094,0.776-0.094
	c0.103,0,0.184,0.006,0.256,0.018c0.041,0.013,0.083,0.018,0.119,0.018c0.162,0,0.447-0.08,0.519-0.596l0.025-0.159l-0.161-0.03
	c-0.543-0.088-1.161-0.552-1.844-1.373c-0.729-0.879-1.244-1.516-1.566-1.93c-0.383-0.57-0.747-1.326-1.083-2.24
	c-0.332-0.896-0.741-1.521-1.218-1.853c0.032-0.167,0.032-0.396,0.019-0.706c-0.03-0.369-0.092-0.783-0.188-1.237
	c-0.1-0.44-0.196-0.858-0.297-1.252c-0.099-0.394-0.19-0.683-0.297-0.888c-0.049-0.441-0.145-1.225-0.285-2.322
	c-0.147-1.105-0.198-1.887-0.147-2.309l0.01-0.082l-0.064-0.063l0.045-0.067c0.06-0.086,0.045-0.147-0.133-0.563l0.034-0.315
	l0.38,1.883c0.188,0.38,0.333,0.742,0.43,1.072c0.093,0.326,0.164,0.715,0.224,1.182c0.096,0.296,0.23,0.635,0.409,1.007
	c0.173,0.372,0.302,0.692,0.398,0.981c0.291,0.775,0.588,1.476,0.89,2.07c0.291,0.586,0.606,1.244,0.951,1.983
	c0.198,0.405,0.555,0.905,1.051,1.499c0.492,0.594,1.041,1.168,1.629,1.703c0.59,0.545,1.244,1.02,1.938,1.418
	c0.707,0.404,1.37,0.605,2.007,0.605c0.006,0,0.501-0.072,0.501-0.072c0.216,0,0.283-0.105,0.308-0.179
	c0.007-0.005,0.021-0.015,0.045-0.022c0.13,0.063,0.268,0.094,0.416,0.094c0.17,0,0.354-0.042,0.546-0.125
	c0.353-0.15,0.7-0.369,1.032-0.648c0.327-0.281,0.599-0.57,0.801-0.879c0.221-0.328,0.302-0.645,0.247-0.887
	c0.055-0.686-0.074-1.188-0.377-1.49c-0.3-0.301-0.649-0.453-1.037-0.453c-0.38,0-0.726,0.121-1.024,0.368
	c-0.309,0.25-0.464,0.554-0.464,0.899l0.005,0.324c0.068,0.369,0.314,0.811,1.027,0.863c0.015,0.12,0.039,0.188,0.089,0.237
	l0.005,0.005c-0.002,0.018-0.035,0.111-0.035,0.111l0.019,0.052c0.016,0.044-0.045,0.147-0.262,0.284
	c-0.253,0.16-0.494,0.311-0.727,0.451c-0.604-0.002-0.732-0.045-0.761-0.055c-0.086-0.043-0.268-0.092-0.908-0.094
	c-0.676-0.386-1.313-0.783-1.897-1.184c-0.507-0.342-0.957-0.771-1.343-1.271h1.139c0.404,0,0.902-0.168,0.978-0.975v-0.075
	l1.394-1.397v-0.068c0-0.215-0.038-0.454-0.117-0.741c-0.086-0.312-0.271-0.558-0.519-0.696c-0.131-0.13-0.249-0.193-0.37-0.193
	c-0.199,0-0.347,0.166-0.43,0.531c0,0.166-0.021,0.241-0.029,0.273c-0.185,0.033-0.267,0.229-0.309,0.377H83.98
	c-0.417,0-0.813-0.105-1.175-0.322c-0.45-0.257-0.858-0.568-1.214-0.925c-0.36-0.356-0.672-0.744-0.934-1.147
	c-0.271-0.42-0.528-0.797-0.769-1.135c-0.15-0.248-0.288-0.457-0.412-0.632c-0.123-0.174-0.308-0.386-0.545-0.623
	c-0.149-0.346-0.412-0.793-0.79-1.364c-0.057-0.265-0.229-0.768-0.516-1.535c-0.354-0.94-0.43-1.365-0.43-1.555v-0.037l-0.366-0.808
	c-0.01-0.793-0.172-1.701-0.485-2.694c-0.313-0.982-0.497-1.845-0.544-2.556c0-0.291-0.023-0.706-0.076-1.261
	c-0.043-0.541-0.109-1.094-0.18-1.661c-0.074-0.546-0.12-1.037-0.146-1.454c-0.021-0.264-0.006-0.391,0.007-0.443
	c0.226,0.016,0.236,0.12,0.245,0.178c0.021,0.213,0.033,0.416,0.033,0.606c0,0.704,0.076,0.88,0.16,0.96
	c0.018,0.02,0.076,0.1,0.137,0.37c0.05,0.741,0.084,1.22,0.108,1.438c0.024,0.24,0.162,0.627,0.409,1.164
	c0.242,0.933,0.492,1.728,0.74,2.367c0.246,0.639,0.567,1.408,0.954,2.28c0.491,1.177,1.249,2.511,2.257,3.956
	c1.01,1.454,1.996,2.566,2.93,3.3c0.533,0.438,1.089,0.921,1.646,1.427c0.564,0.521,1.179,1.004,1.814,1.444
	c0.646,0.449,1.364,0.813,2.133,1.087c0.656,0.233,1.385,0.35,2.161,0.35c0.144,0,0.29-0.004,0.43-0.01
	c1.547-0.05,2.732-0.396,3.519-1.025c0.782-0.635,1.271-1.336,1.451-2.074c0.177-0.743,0.125-1.447-0.156-2.092
	c-0.295-0.668-0.749-1.033-1.367-1.092h-0.881c-0.354,0-0.674,0.226-0.95,0.668c-0.234,0.377-0.449,0.664-0.634,0.853l-0.095,0.093
	l1.06,1.764l0.192-0.192l0.955-0.22l0.367-0.37l0.11,0.657c0,0.428-0.249,0.774-0.758,1.064c-0.533,0.301-0.973,0.569-1.309,0.813
	l-0.604-0.153l-0.069,0.065c-0.092,0.095-0.149,0.172-0.176,0.237c-0.029,0.003-0.074,0.007-0.146,0.007h-0.612
	c-0.054,0.01-0.115,0.016-0.173,0.016c-0.29,0-0.661-0.088-1.099-0.262c-0.546-0.211-1.125-0.469-1.713-0.763
	c-0.571-0.284-1.096-0.589-1.557-0.909c-0.271-0.179-0.447-0.326-0.571-0.438c0.024,0.005,0.052,0.009,0.071,0.014
	c0.131,0.022,0.29,0.04,0.521,0.04l0.636-0.074c0.154,0.014,0.288,0.025,0.401,0.025c0.271,0,0.441-0.045,0.54-0.148
	c0.05-0.045,0.179-0.139,0.523-0.252l0.116-0.039l-0.011-1.205c-0.035-0.104,0.1-0.258,0.181-0.338l0.482-0.484l0.005-0.059
	c0.064-0.561,0.132-0.66,0.138-0.668c0.093-0.095,0.185-0.283,0.295-0.619l0.021-0.052l-0.021-0.055l-0.062-0.165
	c-0.005-0.141-0.084-0.311-0.257-0.543c-0.183-0.241-0.339-0.357-0.526-0.357c-0.002,0-0.004,0-0.004,0
	c-0.287,0.057-0.63,0.313-1.051,0.791c-0.358,0.401-0.744,0.631-1.115,0.676l-1.701-0.066c-0.116-0.301-0.52-0.454-0.666-0.512
	c-0.386-0.144-0.696-0.285-0.93-0.428c-0.233-0.14-0.479-0.308-0.718-0.5c-0.249-0.197-0.503-0.375-0.719-0.5
	c-0.237-0.238-0.427-0.476-0.561-0.701c-0.163-0.271-0.381-0.483-0.653-0.652c-0.363-0.178-0.599-0.364-0.701-0.555
	c-0.125-0.227-0.284-0.484-0.506-0.809c-0.234-0.23-0.582-0.729-1.042-1.476c-0.459-0.745-0.735-1.267-0.829-1.556
	c-0.144-0.322-0.385-0.938-0.771-1.938c-0.471-1.227-0.539-1.568-0.545-1.707l-0.588-2.289c0.387,0.152,0.666,0.504,0.853,1.063
	c0.248,0.75,0.526,1.332,0.834,1.737c0.432,0.558,0.477,0.693,0.479,0.706c0,0.082,0.027,0.242,0.25,0.754
	c0.199,0.297,0.404,0.553,0.609,0.756c0.182,0.186,0.346,0.396,0.487,0.631c0.294,0.494,0.687,0.988,1.16,1.463
	c0.479,0.479,0.948,0.846,1.383,1.086c0.293,0.193,0.533,0.361,0.728,0.508c0.195,0.148,0.445,0.32,0.771,0.533
	c0.337,0.146,0.654,0.291,0.944,0.435c0.292,0.147,0.556,0.292,0.796,0.438l0.039,0.022h0.568c0.149,0.142,0.29,0.216,0.461,0.216
	c0.007,0,0.014-0.004,0.026-0.004c0.262-0.088,0.453-0.177,0.58-0.271c0.355,0.074,0.718,0.109,1.077,0.109
	c0.77,0,1.549-0.17,2.32-0.504c1.146-0.5,1.963-1.087,2.424-1.757c0.302-0.506,0.545-0.965,0.745-1.414
	c0.202-0.459,0.284-1.081,0.235-1.825c-0.003-0.42-0.042-0.717-0.123-0.914c-0.067-0.147-0.121-0.332-0.169-0.553
	c0.04-0.191-0.038-0.457-0.247-0.818c-0.252-0.447-0.269-0.562-0.269-0.58c0-0.053,0.004-0.088,0.021-0.103
	c0.015-0.015,0.052-0.022,0.123-0.034c0.04,0.133,0.157,0.228,0.418,0.307c0.461,0,1.022,0.189,1.68,0.564
	c0.67,0.383,1.341,0.856,1.992,1.414c0.657,0.559,1.257,1.137,1.784,1.708c0.519,0.568,0.854,1.071,0.998,1.497
	c0.249,0.549,0.608,1.163,1.081,1.825c0.44,0.631,0.666,1.327,0.666,2.067c0,0.494,0.035,0.936,0.112,1.324l0.221,1.098
	c0.07,0.348,0.094,0.729,0.07,1.132c-0.023,0.399-0.085,0.903-0.182,1.487l-0.035,0.196h0.15c-0.144,0.839-0.315,1.567-0.515,2.163
	c-0.214,0.643-0.489,1.372-0.834,2.215c-0.187,0.377-0.382,0.688-0.566,0.926c-0.187,0.229-0.444,0.465-0.795,0.72
	c-0.346,0.346-0.657,0.518-0.935,0.518c-0.043,0-0.083-0.005-0.126-0.014c-0.046-0.007-0.088-0.011-0.13-0.011
	c-0.138,0-0.259,0.051-0.351,0.146c-0.168,0.18-0.232,0.503-0.197,1l-0.076,0.24c0,0.706,0.362,0.977,0.666,1.074
	c0.317,0.109,0.509,0.281,0.592,0.519l0.04,0.122l1.938-0.08l0.513,0.057v1.412l-0.562,0.809l-0.32-0.108l0.002,0.496
	c-0.024,0.116-0.113,0.312-0.354,0.586c-0.075,0.065-0.166,0.125-0.247,0.188h0.076c-0.007,0.008-0.009,0.012-0.017,0.021
	c-0.331,0.329-0.741,0.64-1.218,0.927c-0.485,0.293-0.987,0.549-1.484,0.762c-0.492,0.209-0.875,0.314-1.158,0.314
	c-0.212,0.021-0.414,0.037-0.616,0.055c-0.307,0.021-0.603,0.045-0.882,0.057c-0.042,0.002-0.081,0.005-0.121,0.005
	c-0.401,0-0.842-0.108-1.301-0.315c-0.464-0.229-0.406-0.436-0.393-0.504c0.059-0.213,0.047-0.371-0.039-0.479
	c-0.045-0.066-0.14-0.137-0.308-0.137c-0.059,0-0.191,0-0.304,0.045c-0.015-0.028-0.027-0.057-0.041-0.098
	c0-0.113-0.016-0.217-0.045-0.311c-0.018-0.055-0.029-0.125-0.029-0.203v-0.025l-0.007-0.027c-0.045-0.139-0.092-0.233-0.137-0.299
	l-0.007-0.861c-0.096-0.396,0.061-0.51,0.229-0.574c0.238-0.092,0.456-0.162,0.651-0.212l0.012,0.065l-0.459,0.195l-0.18,0.543
	l0.005,0.035c0.037,0.439,0.126,0.949,0.474,0.998c0.124,0.018,0.215,0.207,0.271,0.365l0.037,0.117l0.128-0.006
	c0.9-0.053,1.461-0.287,1.716-0.705c0.229-0.383,0.414-0.893,0.566-1.557l0.011-0.027l-0.166-0.992l-0.065-0.043
	c-0.245-0.141-0.521-0.324-0.834-0.539c-0.347-0.242-0.688-0.359-1.029-0.359c-0.003,0-0.63,0.07-0.63,0.07
	c-0.095-0.012-0.183-0.012-0.27-0.012c-0.36,0-0.657,0.089-0.881,0.266c-0.26,0.21-0.473,0.447-0.624,0.706
	c-0.148,0.247-0.277,0.504-0.381,0.761c-0.076,0.192-0.168,0.311-0.264,0.344l-0.104,0.037l-0.083,1.075
	c0,0.626,0.233,1.229,0.698,1.796c0.264,0.322,0.496,0.594,0.721,0.836c0.147,0.162,0.294,0.317,0.425,0.449
	c0.504,0.301,1.122,0.541,1.844,0.715c0.465,0.113,0.926,0.17,1.379,0.17c0.242,0,0.486-0.017,0.728-0.05l0.281,0.144h0.04
	c0.133-0.002,0.271-0.074,0.434-0.221c0.79-0.017,1.636-0.293,2.518-0.832c0.889-0.547,1.548-1.076,1.938-1.565
	c0.274-0.275,0.513-0.584,0.723-0.918h2.515l-1.499-1.294l-0.027-0.059c0.146-0.263,0.289-0.56,0.418-0.912
	c0.16-0.42,0.382-0.691,0.684-0.82l-0.028-0.145l0.713-1.431l0.005-0.035c0.044-0.718,0.141-1.45,0.285-2.183
	c0.15-0.736,0.226-1.514,0.226-2.289c0.102-0.904,0.14-1.643,0.113-2.262c-0.026-0.617-0.062-1.338-0.121-2.215
	c-0.096-0.285-0.267-0.918-0.508-1.896c-0.245-0.973-0.445-1.648-0.593-1.994c-0.051-0.148-0.147-0.419-0.296-0.813
	c-0.148-0.39-0.292-0.803-0.438-1.238l-0.273-0.821c0.084,0.136,0.184,0.295,0.305,0.483c0.412,0.66,0.694,1.113,0.844,1.361
	c0.188,0.281,0.432,0.768,0.721,1.44c0.289,0.672,0.456,1.131,0.503,1.362c0.1,0.494,0.247,1.053,0.445,1.705
	c0.189,0.621,0.335,1.184,0.441,1.691c0.139,0.414,0.196,1.1,0.175,2.033c-0.022,0.898,0.027,1.521,0.155,1.908l-0.265,0.264
	l0.25,0.245c-0.092,0.187-0.216,0.591-0.43,1.513c-0.216,0.92-0.378,1.563-0.478,1.869c-0.287,1.092-0.574,1.441-0.763,1.546
	c-0.346,0.188-0.679,0.539-0.981,1.052l-0.067,0.11l0.81,0.808l0.074-0.004c0.773-0.05,1.338-0.252,1.688-0.599
	c0.304-0.306,0.623-0.713,0.946-1.212l0.048,0.068c0.073,0.104,0.221,0.125,0.389,0.125h0.034l0.335-0.071
	c0.25,0,0.468-0.122,0.646-0.359c0.158-0.215,0.263-0.396,0.326-0.586l0.271-1.537l0.063,0.033c0.113,0.071,0.338,0.319,0.546,1.187
	c0.17,0.715,0.363,1.283,0.565,1.688c0.195,0.395,0.464,0.833,0.817,1.344c0.371,0.527,0.857,0.824,1.444,0.879
	c0.492,0.041,0.859,0.236,1.128,0.592c0.308,0.406,0.716,0.767,1.244,1.08c0.323,0.141,0.73,0.403,1.207,0.787
	c0.516,0.414,1.044,0.621,1.584,0.621l2.118-0.148l0.045-0.045c0.278-0.281,0.567-0.478,0.861-0.588
	c0.345-0.131,0.649-0.387,0.93-0.773c0.252-0.457,0.408-0.923,0.462-1.382c0.032-0.31,0.138-0.31,0.178-0.31
	c0.044,0,0.118,0.012,0.194,0.043l0.854,0.838c0.373,0.188,0.654,0.377,0.834,0.556l0.022,0.022l0.029,0.014
	c0.311,0.129,0.551,0.348,0.729,0.66c0.226,0.394,0.587,0.619,1.081,0.674l0.268,0.027L126.665,137.286z M119.117,133.475
	c-0.037,0.018-0.1,0.035-0.19,0.063l-0.029-0.145c0.047-0.113,0.141-0.236,0.276-0.377c0.015-0.014,0.029-0.025,0.045-0.037
	C119.141,133.204,119.111,133.359,119.117,133.475z M80.535,100.754l-0.124,0.637l-0.132-0.732l0.19-1.834
	c0.063,0.104,0.113,0.284,0.1,0.598C80.543,99.936,80.532,100.393,80.535,100.754z M56.748,134.372l0.137-0.135
	c0.115,0.047,0.248,0.139,0.408,0.264c0.146,0.115,0.232,0.233,0.26,0.354L56.748,134.372z M71.771,104.665
	c-0.228,0.719-0.338,1.313-0.338,1.819c-0.021,0.045-0.035,0.074-0.04,0.089l-0.054,0.01l-0.05,0.049
	c-0.055,0.055-0.078,0.136-0.074,0.205l-0.128,0.518c-0.141,0.098-0.326,0.355-0.637,1.113c-0.268,0.652-0.454,1.137-0.54,1.41
	c-0.24,0.433-0.507,0.848-0.795,1.232c-0.294,0.391-0.609,0.756-0.947,1.092c-0.478,0.571-1.258,1.202-2.312,1.875
	c-0.975,0.623-1.849,0.936-2.604,0.936c-0.035,0-0.174-0.002-0.213,0l-0.538,0.142c-1.19-0.05-2.112-0.276-2.739-0.672
	c-0.637-0.399-1.17-1.051-1.595-1.952c-0.184-0.361-0.274-0.832-0.274-1.395c0-0.578,0.047-1.106,0.131-1.547
	c0.145-0.34,0.242-0.557,0.295-0.654c0.048-0.1,0.146-0.321,0.287-0.657c0.193-0.382,0.326-0.429,0.392-0.429h0.01
	c0.034,0.009,0.07,0.015,0.104,0.015c0.229,0,0.402-0.188,0.515-0.553c0.519-0.168,0.729-0.444,0.807-0.701
	c0.279,0.121,0.564,0.25,0.857,0.388c0.385,0.178,0.694,0.289,0.946,0.344c0.589,0.142,1.002,0.217,1.268,0.217
	c0.113,0,0.205-0.016,0.271-0.044c0.086-0.035,0.331-0.099,1.072-0.099h0.044l1.358-0.756c0.463-0.256,0.832-0.627,1.063-1.054
	c0.267-0.265,0.541-0.763,0.848-1.522c0.386-0.967,0.567-0.996,0.576-0.996h0.17l-0.01-0.959c-0.006-0.02-0.012-0.033-0.016-0.047
	c0.092-0.076,0.135-0.209,0.162-0.283l0.016-0.045l-0.435-2.012c0.223-0.224,0.438-0.466,0.646-0.718
	c0.243-0.301,0.371-0.718,0.367-1.265c-0.053-0.467-0.237-0.918-0.545-1.329c-0.088-0.111-0.137-0.19-0.166-0.245
	c0.328,0.016,0.643,0.17,0.939,0.463c0.327,0.33,0.608,0.734,0.846,1.205c0.248,0.488,0.465,0.947,0.663,1.387
	c0.187,0.426,0.352,0.764,0.497,1.008v1.274c0,0.324,0.041,0.576,0.124,0.763c0.062,0.148,0.095,0.313,0.095,0.483
	C72.092,103.331,71.983,103.967,71.771,104.665z M75.251,113.858c-0.071,0.045-0.126,0.107-0.171,0.188
	c0.018-0.256,0.05-0.569,0.1-0.941c0.007-0.059,0.014-0.113,0.021-0.168l0.129,0.748C75.347,113.736,75.353,113.786,75.251,113.858z
	"/>
<path fill="#0067a5" d="M122.777,116.323C112.285,91.411,83.205,18.851,79.271,9.837c-0.838-1.925-1.504-3.25-2.151-4.087
	c-0.039-0.054-0.082-0.104-0.123-0.153c-0.03-0.035-0.062-0.074-0.09-0.109c-0.388-0.444-0.775-0.711-1.201-0.829h-0.003
	c-0.081-0.02-0.167-0.04-0.251-0.049c-0.04-0.006-0.08-0.006-0.119-0.011c-0.049-0.002-0.095-0.009-0.144-0.009
	c-0.006,0-0.006,0-0.01,0h-0.005c-0.05,0-0.099,0.007-0.146,0.009c-0.04,0.005-0.077,0.005-0.117,0.011
	c-0.084,0.01-0.172,0.03-0.252,0.05h-0.003c-0.428,0.118-0.813,0.385-1.2,0.829c-0.033,0.035-0.063,0.074-0.093,0.109
	c-0.041,0.049-0.082,0.099-0.124,0.153c-0.646,0.837-1.313,2.162-2.151,4.087c-3.933,9.013-33.011,81.573-43.503,106.487
	c-9.435,18.635-22.993,18.604-22.993,18.604h15.361c1.802-2.574,14.726-20.604,20.136-16.618c0.11,0.053,0.222,0.097,0.33,0.155
	c0.02-0.049,0.617-1.84,0.617-1.84l0.084-0.185c0.096-0.217,0.191-0.419,0.285-0.621c1.525-3.983,5.237-11.112,13.026-14.321
	c0,0,0.998-1.568,2.424-3.549L75.18,51.504l18.133,45.961c1.372,1.873,2.422,3.479,2.7,3.91c0.483,0.227,0.889,0.439,1.232,0.645
	c8.229,4.001,11.513,12.427,12.464,15.488c0.353-0.094,0.718-0.159,1.098-0.159c0.685,0,1.347,0.153,1.965,0.425
	c6.124,0.803,16.225,14.898,17.804,17.152h15.194C145.77,134.926,132.208,134.958,122.777,116.323z"/>
</svg>
